<?xml version="1.0" encoding="UTF-8" standalone="no"?>
<!-- Created with Inkscape (http://www.inkscape.org/) -->

<svg
   xmlns:dc="http://purl.org/dc/elements/1.1/"
   xmlns:cc="http://creativecommons.org/ns#"
   xmlns:rdf="http://www.w3.org/1999/02/22-rdf-syntax-ns#"
   xmlns:svg="http://www.w3.org/2000/svg"
   xmlns="http://www.w3.org/2000/svg"
   xmlns:sodipodi="http://sodipodi.sourceforge.net/DTD/sodipodi-0.dtd"
   xmlns:inkscape="http://www.inkscape.org/namespaces/inkscape"
   width="512"
   height="512"
   id="svg3345"
   version="1.1"
   inkscape:version="0.48.3.1 r9886"
   sodipodi:docname="buscar.svg">
  <defs
     id="defs3347" />
  <sodipodi:namedview
     id="base"
     pagecolor="#ffffff"
     bordercolor="#666666"
     borderopacity="1.0"
     inkscape:pageopacity="0.0"
     inkscape:pageshadow="2"
     inkscape:zoom="11.2"
     inkscape:cx="295.68541"
     inkscape:cy="222.37419"
     inkscape:document-units="px"
     inkscape:current-layer="layer1"
     showgrid="true"
     showguides="true"
     inkscape:guide-bbox="true"
     inkscape:snap-nodes="false"
     inkscape:window-width="1280"
     inkscape:window-height="938"
     inkscape:window-x="0"
     inkscape:window-y="27"
     inkscape:window-maximized="1">
    <sodipodi:guide
       orientation="0,1"
       position="728.57143,64"
       id="guide3353" />
    <inkscape:grid
       type="xygrid"
       id="grid3862"
       empspacing="24"
       visible="true"
       enabled="true"
       snapvisiblegridlinesonly="true"
       spacingx="0.8888px"
       spacingy="0.8888px" />
  </sodipodi:namedview>
  <metadata
     id="metadata3350">
    <rdf:RDF>
      <cc:Work
         rdf:about="">
        <dc:format>image/svg+xml</dc:format>
        <dc:type
           rdf:resource="http://purl.org/dc/dcmitype/StillImage" />
        <dc:title />
      </cc:Work>
    </rdf:RDF>
  </metadata>
  <g
     inkscape:label="Capa 1"
     inkscape:groupmode="layer"
     id="layer1"
     transform="translate(0,-540.36218)">
    <path
       style="color:#000000;fill:#000000;stroke:none;stroke-width:1;marker:none;visibility:visible;display:inline;overflow:visible;enable-background:accumulate"
       d="m 266.69144,806.96522 c 4.9857,-4.9858 13.0139,-4.9858 17.9997,3e-4 l 28.1642,28.1635 c 4.9854,4.9862 4.9854,13.0139 0,18.0001 -4.9865,4.9857 -13.0151,4.9857 -18.0005,0 l -28.1634,-28.1639 c -4.9858,-4.9861 -4.9858,-13.0139 0,-18 z"
       id="path3464"
       inkscape:connector-curvature="0"
       sodipodi:nodetypes="sccccss" />
    <path
       style="color:#000000;fill:#000000;stroke:none;stroke-width:1;marker:none;visibility:visible;display:inline;overflow:visible;enable-background:accumulate"
       d="m 234.83878,739.33289 c -9.1865,0 -18.4346,3.4499 -25.4198,10.4352 -13.9706,13.9702 -13.9702,36.7345 0,50.7047 13.9698,13.9706 36.7348,13.9698 50.705,0 13.9706,-13.9702 13.9702,-36.7345 0,-50.7047 -6.9849,-6.9853 -16.0992,-10.4352 -25.2852,-10.4352 z m 0,8.4286 c 6.9892,0 13.9097,2.6715 19.2648,8.027 10.709,10.7094 10.7121,27.9544 0,38.6642 -10.7106,10.7094 -27.9552,10.7094 -38.6642,0 -10.7098,-10.7098 -10.7094,-27.9548 0,-38.6642 5.3551,-5.3547 12.4094,-8.0176 19.3994,-8.027 z"
       id="path3466"
       inkscape:connector-curvature="0" />
  </g>
</svg>
