<?xml version="1.0" encoding="UTF-8" standalone="no"?>
<!-- Created with Inkscape (http://www.inkscape.org/) -->

<svg
   xmlns:dc="http://purl.org/dc/elements/1.1/"
   xmlns:cc="http://creativecommons.org/ns#"
   xmlns:rdf="http://www.w3.org/1999/02/22-rdf-syntax-ns#"
   xmlns:svg="http://www.w3.org/2000/svg"
   xmlns="http://www.w3.org/2000/svg"
   xmlns:sodipodi="http://sodipodi.sourceforge.net/DTD/sodipodi-0.dtd"
   xmlns:inkscape="http://www.inkscape.org/namespaces/inkscape"
   width="512"
   height="512"
   id="svg3345"
   version="1.1"
   inkscape:version="0.48.3.1 r9886"
   sodipodi:docname="brand.svg">
  <defs
     id="defs3347" />
  <sodipodi:namedview
     id="base"
     pagecolor="#ffffff"
     bordercolor="#666666"
     borderopacity="1.0"
     inkscape:pageopacity="0.0"
     inkscape:pageshadow="2"
     inkscape:zoom="1.9282965"
     inkscape:cx="155.78797"
     inkscape:cy="278.12147"
     inkscape:document-units="px"
     inkscape:current-layer="layer1"
     showgrid="true"
     showguides="true"
     inkscape:guide-bbox="true"
     inkscape:snap-nodes="false"
     inkscape:window-width="1280"
     inkscape:window-height="938"
     inkscape:window-x="0"
     inkscape:window-y="27"
     inkscape:window-maximized="1">
    <sodipodi:guide
       orientation="0,1"
       position="728.57143,64"
       id="guide3353" />
    <inkscape:grid
       type="xygrid"
       id="grid3243"
       empspacing="8"
       visible="true"
       enabled="true"
       snapvisiblegridlinesonly="true"
       spacingx="0.8888px"
       spacingy="0.8888px" />
  </sodipodi:namedview>
  <metadata
     id="metadata3350">
    <rdf:RDF>
      <cc:Work
         rdf:about="">
        <dc:format>image/svg+xml</dc:format>
        <dc:type
           rdf:resource="http://purl.org/dc/dcmitype/StillImage" />
        <dc:title />
      </cc:Work>
    </rdf:RDF>
  </metadata>
  <g
     inkscape:label="Capa 1"
     inkscape:groupmode="layer"
     id="layer1"
     transform="translate(0,-540.36218)">
    <path
       style="color:#000000;fill:#000000;fill-opacity:1;fill-rule:nonzero;stroke:none;stroke-width:2.29341292;marker:none;visibility:visible;display:inline;overflow:visible;enable-background:accumulate"
       d="M 256 93.28125 C 166.13178 93.28125 93.28125 166.13178 93.28125 256 C 93.28125 345.86822 166.13178 418.71875 256 418.71875 C 345.86822 418.71875 418.71875 345.86822 418.71875 256 C 418.71875 166.13178 345.86822 93.28125 256 93.28125 z M 253.375 129.21875 C 254.3555 129.08315 255.3983 129.454 256.0625 130.1875 L 361.84375 248.90625 C 363.03945 250.21525 362.7437 252.57605 361.25 253.53125 L 246.6875 326.90625 C 243.7914 335.31385 242.9589 346.93725 245.8125 356.53125 C 248.6681 366.13135 254.59395 373.2944 265.21875 374.9375 L 379.15625 300.59375 L 351 265.96875 C 349.979 264.72435 350.193 262.67715 351.4375 261.65625 C 352.6816 260.63515 354.729 260.8181 355.75 262.0625 L 386.09375 299.46875 C 387.12415 300.75995 386.8436 302.9136 385.5 303.875 L 267.53125 380.78125 C 266.92795 381.18275 266.1566 381.34 265.4375 381.25 C 258.7084 380.3739 251.27225 376.99515 245.46875 370.53125 L 142.59375 255.96875 C 139.31025 252.31685 135.5712 245.31055 133.6875 236.21875 C 131.8042 227.12695 131.9446 216.11345 137.125 205.40625 C 137.3711 204.91075 137.75145 204.4843 138.21875 204.1875 L 252.15625 129.71875 C 252.52085 129.47065 252.9402 129.29075 253.375 129.21875 z M 349.25 272.1875 A 3.0531277 3.0531277 0 0 1 350.875 277.84375 L 256.5625 338.78125 A 3.0531277 3.0531277 0 1 1 253.25 333.65625 L 347.59375 272.71875 A 3.0531277 3.0531277 0 0 1 348.9375 272.21875 A 3.0531277 3.0531277 0 0 1 349.25 272.1875 z M 354.125 284.125 A 3.0531277 3.0531277 0 0 1 354.34375 284.125 A 3.0531277 3.0531277 0 0 1 355.75 289.90625 L 258 353.03125 A 3.0955251 3.0955251 0 0 1 254.71875 347.78125 L 352.46875 284.78125 A 3.0531277 3.0531277 0 0 1 353.8125 284.1875 A 3.0531277 3.0531277 0 0 1 354.125 284.125 z M 357.71875 296.6875 A 3.0531277 3.0531277 0 0 1 359.40625 302.34375 L 262.875 364.625 A 3.0531277 3.0531277 0 1 1 259.59375 359.5 L 356 297.21875 A 3.0531277 3.0531277 0 0 1 357.34375 296.71875 A 3.0531277 3.0531277 0 0 1 357.71875 296.6875 z "
       transform="translate(0,540.36218)"
       id="path3388" />
    <path
       inkscape:connector-curvature="0"
       id="path3392"
       d="m 143.81683,748.36721 a 2.6169671,2.6169671 0 0 0 -1.7062,4.3875 l 97.5,108.3469 a 2.6316337,2.6316337 0 1 0 3.9,-3.5344 l -97.5,-108.225 a 2.6169671,2.6169671 0 0 0 -2.1938,-0.975 z"
       style="font-size:medium;font-style:normal;font-variant:normal;font-weight:normal;font-stretch:normal;text-indent:0;text-align:start;text-decoration:none;line-height:normal;letter-spacing:normal;word-spacing:normal;text-transform:none;direction:ltr;block-progression:tb;writing-mode:lr-tb;text-anchor:start;baseline-shift:baseline;color:#000000;fill:#000000;fill-opacity:1;stroke:none;stroke-width:1.34190023;marker:none;visibility:visible;display:inline;overflow:visible;enable-background:accumulate;font-family:Sans;-inkscape-font-specification:Sans" />
    <path
       style="font-size:5.79929924px;font-style:normal;font-variant:normal;font-weight:bold;font-stretch:normal;text-align:start;line-height:125%;writing-mode:lr-tb;text-anchor:start;fill:#000000;fill-opacity:1;stroke:none;display:inline;font-family:Liberation Mono;-inkscape-font-specification:Liberation Mono Bold"
       d="M 182.5 194.375 C 181.81189 194.38656 181.15205 194.4872 180.5 194.65625 C 179.2032 194.99675 177.9681 195.51935 176.8125 196.28125 C 175.5789 197.09885 174.57695 198.02335 173.84375 199.03125 C 173.08985 200.04265 172.6875 201.206 172.6875 202.5 C 172.6454 203.7898 173.01335 205.23685 173.78125 206.84375 C 174.54955 208.44935 175.81735 210.2532 177.59375 212.25 C 179.29225 214.1572 180.94555 215.61035 182.53125 216.65625 C 184.13105 217.68455 185.652 218.38055 187.125 218.71875 C 188.591 219.07865 190.00455 219.08425 191.34375 218.78125 C 192.68305 218.46265 193.9339 217.9109 195.125 217.125 C 196.309 216.3391 197.2328 215.4189 197.9375 214.375 C 198.6648 213.3319 199.03125 212.15325 199.03125 210.84375 C 199.06635 209.51235 198.6848 208.05885 197.9375 206.46875 C 197.2043 204.85765 195.9969 203.11615 194.3125 201.21875 L 194.3125 201.15625 C 192.529 199.15945 190.83265 197.64185 189.21875 196.59375 C 187.60455 195.54565 186.0765 194.8585 184.625 194.5625 C 183.899 194.4182 183.18811 194.36344 182.5 194.375 z M 182.09375 198.84375 C 182.60108 198.86823 183.13202 199.0171 183.71875 199.28125 C 184.49415 199.63515 185.3749 200.21365 186.3125 201.03125 C 187.2637 201.83685 188.3429 202.9417 189.5625 204.3125 C 190.7466 205.6432 191.70925 206.77905 192.34375 207.78125 C 192.98485 208.77925 193.4144 209.6805 193.625 210.4375 C 193.8358 211.1839 193.7731 211.8323 193.5625 212.375 C 193.3156 212.9015 192.8845 213.3483 192.25 213.75 C 191.6088 214.1759 191.0176 214.423 190.3125 214.5 C 189.6573 214.5564 188.93155 214.4147 188.15625 214.0625 C 187.36685 213.6988 186.48245 213.1217 185.53125 212.3125 C 184.59365 211.4984 183.52785 210.42435 182.34375 209.09375 C 181.13865 207.74185 180.23595 206.557 179.53125 205.5625 C 178.85455 204.5624 178.42935 203.70805 178.21875 202.96875 C 178.00795 202.22235 178.0317 201.55985 178.3125 201.03125 C 178.5804 200.49205 179.0533 199.9994 179.6875 199.5625 C 180.3076 199.1515 180.95925 198.945 181.59375 198.875 C 181.75403 198.85737 181.92464 198.83559 182.09375 198.84375 z "
       transform="translate(0,540.36218)"
       id="path3260" />
    <path
       style="font-size:5.79929924px;font-style:normal;font-variant:normal;font-weight:bold;font-stretch:normal;text-align:start;line-height:125%;writing-mode:lr-tb;text-anchor:start;fill:#000000;fill-opacity:1;stroke:none;display:inline;font-family:Liberation Mono;-inkscape-font-specification:Liberation Mono Bold"
       d="m 207.75183,748.61851 -2.7697,-3.1152 6.5477,-4.3304 -11.8268,-13.2758 c 0.1404,0.5356 0.1404,1.1404 0,1.8001 -0.1404,0.6484 -0.4227,1.2997 -0.7753,1.9586 -0.351,0.6485 -0.8319,1.292 -1.4095,1.9263 -0.5639,0.6202 -1.2335,1.1706 -1.9738,1.6584 l -2.8403,-3.1893 c 0.8318,-0.5497 1.5296,-1.1453 2.1005,-1.7902 0.564,-0.6414 1.0148,-1.3095 1.3389,-2.0003 0.351,-0.6977 0.4937,-1.4096 0.5639,-2.1222 0.07,-0.7231 0,-1.4279 -0.07,-2.1172 l 4.4686,-2.9588 15.1324,16.986 5.4343,-3.596 2.7698,3.1146 -16.7041,11.0514"
       id="path3254" />
    <path
       style="font-size:5.79929924px;font-style:normal;font-variant:normal;font-weight:bold;font-stretch:normal;text-align:start;line-height:125%;writing-mode:lr-tb;text-anchor:start;fill:#000000;fill-opacity:1;stroke:none;display:inline;font-family:Liberation Mono;-inkscape-font-specification:Liberation Mono Bold"
       d="M 223.8125 166.96875 C 223.12444 166.98018 222.46435 167.0809 221.8125 167.25 C 220.5157 167.5905 219.288 168.13945 218.125 168.90625 C 216.8984 169.71965 215.89605 170.64485 215.15625 171.65625 C 214.40895 172.66415 214 173.80395 214 175.09375 C 213.9575 176.38355 214.31845 177.8354 215.09375 179.4375 C 215.86205 181.0438 217.13025 182.84635 218.90625 184.84375 C 220.60475 186.75035 222.25765 188.23525 223.84375 189.28125 C 225.43655 190.31375 226.9641 191.01265 228.4375 191.34375 C 229.9035 191.70375 231.31705 191.70925 232.65625 191.40625 C 233.99515 191.08765 235.2394 190.5401 236.4375 189.75 C 237.6219 188.9642 238.5453 188.0396 239.25 187 C 239.9056 185.9562 240.34375 184.78255 240.34375 183.46875 C 240.37215 182.14155 239.9902 180.68805 239.25 179.09375 C 238.5172 177.48185 237.3164 175.74115 235.625 173.84375 L 235.625 173.78125 C 233.8489 171.78455 232.14545 170.26605 230.53125 169.21875 C 228.91735 168.16995 227.3894 167.4905 225.9375 167.1875 C 225.2115 167.0427 224.50056 166.95732 223.8125 166.96875 z M 222.90625 171.46875 C 223.54775 171.39115 224.25595 171.55415 225.03125 171.90625 C 225.81365 172.25585 226.6808 172.84295 227.625 173.65625 C 228.5766 174.46255 229.6554 175.53535 230.875 176.90625 C 232.059 178.23695 233.02165 179.40405 233.65625 180.40625 C 234.29775 181.40425 234.7269 182.3055 234.9375 183.0625 C 235.1483 183.8089 235.1558 184.42605 234.875 184.96875 C 234.6351 185.49175 234.1967 185.9661 233.5625 186.375 C 232.928 186.7965 232.2591 187.048 231.625 187.125 C 230.9624 187.1815 230.24405 187.0397 229.46875 186.6875 C 228.67935 186.3238 227.80245 185.7431 226.84375 184.9375 C 225.91325 184.12 224.84035 183.04945 223.65625 181.71875 C 222.45115 180.36765 221.54855 179.1784 220.84375 178.1875 C 220.17415 177.1831 219.74185 176.33315 219.53125 175.59375 C 219.32045 174.84735 219.3442 174.19195 219.625 173.65625 C 219.8929 173.11705 220.3655 172.6316 221 172.1875 C 221.6131 171.7837 222.27215 171.53975 222.90625 171.46875 z "
       transform="translate(0,540.36218)"
       id="path3252" />
    <path
       style="font-size:5.79929924px;font-style:normal;font-variant:normal;font-weight:bold;font-stretch:normal;text-align:start;line-height:125%;writing-mode:lr-tb;text-anchor:start;fill:#000000;fill-opacity:1;stroke:none;display:inline;font-family:Liberation Mono;-inkscape-font-specification:Liberation Mono Bold"
       d="m 249.06163,721.23581 -2.7702,-3.1145 6.5407,-4.3269 -11.8267,-13.2759 c 0.1404,0.5357 0.1404,1.137 0,1.8002 -0.1404,0.6413 -0.4228,1.2954 -0.7683,1.9551 -0.351,0.6484 -0.8315,1.292 -1.4095,1.9263 -0.5639,0.6132 -1.2335,1.1707 -1.9734,1.6577 l -2.8403,-3.1886 c 0.8314,-0.5497 1.5221,-1.1418 2.0931,-1.786 0.5639,-0.6414 1.0222,-1.3138 1.3463,-2.0045 0.351,-0.7048 0.4933,-1.4061 0.5639,-2.1221 0.07,-0.719 0,-1.428 -0.07,-2.1173 l 4.4682,-2.9595 15.1324,16.9867 5.4343,-3.596 2.7698,3.1146 -16.7041,11.0507"
       id="path3400" />
    <path
       style="font-size:5.79929924px;font-style:normal;font-variant:normal;font-weight:bold;font-stretch:normal;text-align:start;line-height:125%;writing-mode:lr-tb;text-anchor:start;fill:#000000;fill-opacity:1;stroke:none;display:inline;font-family:Liberation Mono;-inkscape-font-specification:Liberation Mono Bold"
       d="m 210.31883,788.02721 -2.7768,-3.1138 6.5407,-4.3269 -11.8197,-13.2765 c 0.1404,0.5357 0.1404,1.1361 0,1.8001 -0.1404,0.6413 -0.4228,1.2954 -0.7753,1.9551 -0.351,0.6485 -0.8315,1.292 -1.4095,1.9262 -0.5639,0.6203 -1.2336,1.1708 -1.9664,1.6578 l -2.8404,-3.1886 c 0.8245,-0.5427 1.5292,-1.146 2.0932,-1.786 0.5639,-0.6413 1.0148,-1.3137 1.3463,-2.0052 0.2808,-0.7048 0.4933,-1.4096 0.5635,-2.1215 0.07,-0.7195 0,-1.4279 -0.07,-2.1172 l 4.4756,-2.9595 15.1254,16.9866 5.4343,-3.5959 2.7768,3.1146 -16.7041,11.0507"
       id="path3276" />
    <path
       style="font-size:5.79929924px;font-style:normal;font-variant:normal;font-weight:bold;font-stretch:normal;text-align:start;line-height:125%;writing-mode:lr-tb;text-anchor:start;fill:#000000;fill-opacity:1;stroke:none;display:inline;font-family:Liberation Mono;-inkscape-font-specification:Liberation Mono Bold"
       d="M 226.375 206.40625 C 225.68605 206.41768 225.0269 206.48715 224.375 206.65625 C 223.0783 206.99235 221.8364 207.5498 220.6875 208.3125 C 219.4543 209.1301 218.45895 210.0512 217.71875 211.0625 C 216.96445 212.0739 216.5625 213.24145 216.5625 214.53125 C 216.5203 215.82535 216.88085 217.2688 217.65625 218.875 C 218.42455 220.4813 219.69265 222.28455 221.46875 224.28125 C 223.16755 226.18845 224.81345 227.6416 226.40625 228.6875 C 228.00605 229.7159 229.52 230.4189 231 230.75 C 232.459 231.1096 233.88655 231.1085 235.21875 230.8125 C 236.55805 230.4932 237.8089 229.94205 239 229.15625 C 240.184 228.37035 241.1078 227.45005 241.8125 226.40625 C 242.4751 225.36325 242.90625 224.1888 242.90625 222.875 C 242.92735 221.5472 242.58355 220.0936 241.84375 218.5 C 241.09655 216.8916 239.8723 215.1473 238.1875 213.25 L 238.1875 213.1875 C 236.4044 211.19 234.7322 209.6773 233.125 208.625 C 231.5111 207.5769 229.9589 206.88935 228.5 206.59375 C 227.7775 206.44895 227.06395 206.39482 226.375 206.40625 z M 225.96875 210.875 C 226.47725 210.89848 227.03827 211.04843 227.625 211.3125 C 228.4003 211.6664 229.2429 212.2492 230.1875 213.0625 C 231.1317 213.8724 232.218 214.9417 233.4375 216.3125 L 233.46875 216.3125 C 234.65275 217.6439 235.58455 218.8145 236.21875 219.8125 C 236.86725 220.8147 237.2894 221.6847 237.5 222.4375 C 237.7108 223.1846 237.6481 223.8323 237.4375 224.375 C 237.191 224.9022 236.79085 225.37255 236.15625 225.78125 C 235.50775 226.20715 234.8922 226.45425 234.1875 226.53125 C 233.5319 226.58765 232.81355 226.44595 232.03125 226.09375 C 231.24185 225.73435 230.35785 225.15005 229.40625 224.34375 C 228.46205 223.53045 227.4341 222.4564 226.25 221.125 C 225.0445 219.7738 224.0717 218.58825 223.4375 217.59375 C 222.7609 216.58935 222.3357 215.7393 222.125 215 C 221.9142 214.2529 221.9067 213.5911 222.1875 213.0625 C 222.4621 212.5191 222.9279 212.03075 223.5625 211.59375 C 224.1826 211.18285 224.83455 210.97725 225.46875 210.90625 C 225.6309 210.88685 225.79925 210.86717 225.96875 210.875 z "
       transform="translate(0,540.36218)"
       id="path3274" />
    <path
       style="font-size:5.79929924px;font-style:normal;font-variant:normal;font-weight:bold;font-stretch:normal;text-align:start;line-height:125%;writing-mode:lr-tb;text-anchor:start;fill:#000000;fill-opacity:1;stroke:none;display:inline;font-family:Liberation Mono;-inkscape-font-specification:Liberation Mono Bold"
       d="M 247.0625 192.6875 C 246.37531 192.69906 245.6796 192.76845 245.03125 192.9375 C 243.72705 193.2779 242.50675 193.82765 241.34375 194.59375 C 240.11715 195.40715 239.15345 196.33165 238.40625 197.34375 C 237.65945 198.35095 237.21875 199.5227 237.21875 200.8125 C 237.17625 202.1023 237.5372 203.55425 238.3125 205.15625 C 239.0808 206.76255 240.349 208.53455 242.125 210.53125 C 243.8235 212.43845 245.4698 213.92275 247.0625 214.96875 C 248.6483 216.00125 250.18325 216.69975 251.65625 217.03125 C 253.12925 217.38985 254.5362 217.39675 255.875 217.09375 C 257.2143 216.77445 258.46515 216.2275 259.65625 215.4375 C 260.84735 214.6516 261.7953 213.7272 262.5 212.6875 C 263.1556 211.6444 263.5625 210.46935 263.5625 209.15625 C 263.5905 207.82835 263.2403 206.37485 262.5 204.78125 C 261.7672 203.16865 260.53515 201.42935 258.84375 199.53125 L 258.84375 199.46875 C 257.06765 197.47195 255.39505 195.95435 253.78125 194.90625 C 252.16705 193.85815 250.61525 193.171 249.15625 192.875 C 248.43025 192.7307 247.74969 192.67594 247.0625 192.6875 z M 246.15625 197.15625 C 246.79045 197.07875 247.50595 197.24155 248.28125 197.59375 C 249.06365 197.94405 249.90615 198.52975 250.84375 199.34375 C 251.79535 200.14945 252.8989 201.22285 254.125 202.59375 L 254.0625 202.59375 C 255.2469 203.92525 256.20925 205.09145 256.84375 206.09375 C 257.48495 207.09165 257.88315 207.9931 258.09375 208.75 C 258.30455 209.4965 258.24185 210.1449 258.03125 210.6875 C 257.78435 211.2105 257.3841 211.6537 256.75 212.0625 C 256.1154 212.4848 255.41545 212.7355 254.78125 212.8125 C 254.11865 212.8689 253.4 212.7272 252.625 212.375 C 251.8357 212.0113 250.98285 211.4306 250.03125 210.625 C 249.09365 209.8074 248.03475 208.73765 246.84375 207.40625 C 245.64565 206.05515 244.66535 204.866 244.03125 203.875 C 243.35455 202.8706 242.92935 202.02065 242.71875 201.28125 C 242.57835 200.53495 242.56295 199.87935 242.84375 199.34375 C 243.10465 198.80375 243.6159 198.3191 244.25 197.875 C 244.8635 197.4711 245.52175 197.22625 246.15625 197.15625 z "
       transform="translate(0,540.36218)"
       id="path3268" />
    <path
       style="font-size:5.79929924px;font-style:normal;font-variant:normal;font-weight:bold;font-stretch:normal;text-align:start;line-height:125%;writing-mode:lr-tb;text-anchor:start;fill:#000000;fill-opacity:1;stroke:none;display:inline;font-family:Liberation Mono;-inkscape-font-specification:Liberation Mono Bold"
       d="m 272.24423,746.92611 -2.7768,-3.1139 6.5407,-4.3268 -11.8268,-13.2766 c 0.1404,0.5357 0.1404,1.1369 0,1.8008 -0.1404,0.6414 -0.4227,1.2948 -0.7683,1.9545 -0.351,0.6484 -0.8314,1.2919 -1.4094,1.9262 -0.564,0.6132 -1.2336,1.1708 -1.9664,1.6585 l -2.8404,-3.1893 c 0.8245,-0.5498 1.5222,-1.1418 2.0861,-1.786 0.564,-0.6414 1.0218,-1.3138 1.3533,-2.0045 0.351,-0.7048 0.4934,-1.4061 0.5636,-2.1222 0.07,-0.7189 0,-1.428 -0.07,-2.1173 l 4.4686,-2.9594 15.1324,16.9873 5.4343,-3.5959 2.7768,3.1138 -16.7041,11.0508"
       id="path3402" />
    <path
       style="font-size:5.79929924px;font-style:normal;font-variant:normal;font-weight:bold;font-stretch:normal;text-align:start;line-height:125%;writing-mode:lr-tb;text-anchor:start;fill:#000000;fill-opacity:1;stroke:none;display:inline;font-family:Liberation Mono;-inkscape-font-specification:Liberation Mono Bold"
       d="m 234.30233,814.85411 -2.7772,-3.1139 6.5407,-4.3275 -11.8198,-13.2758 c 0.1404,0.5426 0.1404,1.1361 0,1.8007 -0.1404,0.6414 -0.4227,1.2954 -0.7749,1.9538 -0.351,0.6484 -0.8319,1.2926 -1.4098,1.9269 -0.564,0.6132 -1.2336,1.1707 -1.9664,1.6577 l -2.8404,-3.1879 c 0.8245,-0.5497 1.5296,-1.146 2.0931,-1.7866 0.564,-0.6414 1.0152,-1.3138 1.3463,-2.0052 0.2808,-0.6978 0.4934,-1.409 0.564,-2.1208 0.07,-0.7203 0,-1.4286 -0.07,-2.118 l 4.4756,-2.9588 15.125,16.986 5.4342,-3.5959 2.7768,3.1138 -16.7041,11.0515"
       id="path3288" />
    <path
       style="font-size:5.79929924px;font-style:normal;font-variant:normal;font-weight:bold;font-stretch:normal;text-align:start;line-height:125%;writing-mode:lr-tb;text-anchor:start;fill:#000000;fill-opacity:1;stroke:none;display:inline;font-family:Liberation Mono;-inkscape-font-specification:Liberation Mono Bold"
       d="m 254.94673,801.18921 -2.7702,-3.1139 6.5478,-4.3304 -11.8268,-13.2765 c 0.1404,0.5427 0.1404,1.1404 0,1.8008 -0.1404,0.6484 -0.4228,1.299 -0.7749,1.958 -0.351,0.6484 -0.8319,1.2926 -1.4099,1.9269 -0.5639,0.6203 -1.2335,1.17 -1.9734,1.6577 l -2.8333,-3.1885 c 0.8315,-0.5498 1.5221,-1.146 2.0931,-1.7903 0.564,-0.6413 1.0152,-1.3095 1.3463,-2.0009 0.2808,-0.7048 0.4933,-1.4096 0.5639,-2.1215 0.07,-0.7239 0,-1.4279 -0.07,-2.1172 l 4.4687,-2.9595 15.1323,16.9866 5.4339,-3.5959 2.7698,3.1138 -16.7037,11.0508"
       id="path3286" />
    <path
       style="font-size:5.79929924px;font-style:normal;font-variant:normal;font-weight:bold;font-stretch:normal;text-align:start;line-height:125%;writing-mode:lr-tb;text-anchor:start;fill:#000000;fill-opacity:1;stroke:none;display:inline;font-family:Liberation Mono;-inkscape-font-specification:Liberation Mono Bold"
       d="M 271.03125 219.5625 C 270.34406 219.57406 269.64835 219.64345 269 219.8125 C 267.6958 220.1523 266.4755 220.70185 265.3125 221.46875 C 264.0859 222.28205 263.1222 223.20735 262.375 224.21875 C 261.6282 225.22665 261.1875 226.3977 261.1875 227.6875 C 261.145 228.9773 261.50595 230.42915 262.28125 232.03125 C 263.04955 233.63745 264.31775 235.4407 266.09375 237.4375 C 267.79225 239.3447 269.43845 240.79715 271.03125 241.84375 C 272.61735 242.87565 274.152 243.57515 275.625 243.90625 C 277.0981 244.26585 278.50495 244.27175 279.84375 243.96875 C 281.18305 243.65085 282.4339 243.1019 283.625 242.3125 C 284.8161 241.5259 285.76405 240.6028 286.46875 239.5625 C 287.12435 238.5193 287.53125 237.34505 287.53125 236.03125 C 287.55925 234.70405 287.20905 233.25055 286.46875 231.65625 C 285.73595 230.04435 284.5039 228.30295 282.8125 226.40625 L 282.8125 226.34375 C 281.0364 224.34705 279.3638 222.82935 277.75 221.78125 C 276.1358 220.73315 274.5769 220.053 273.125 219.75 C 272.399 219.6057 271.71844 219.55094 271.03125 219.5625 z M 270.59375 224.03125 C 271.10088 224.05478 271.66852 224.2046 272.25 224.46875 C 273.0324 224.81835 273.8679 225.40545 274.8125 226.21875 C 275.7641 227.02435 276.87465 228.09795 278.09375 229.46875 L 278.03125 229.5 C 279.22235 230.8314 280.14675 231.96655 280.78125 232.96875 C 281.42245 233.96745 281.8519 234.8681 282.0625 235.625 C 282.2733 236.3721 282.2808 237.0198 282 237.5625 C 281.7601 238.0862 281.35285 238.55995 280.71875 238.96875 C 280.08415 239.38965 279.3842 239.6175 278.75 239.6875 C 278.0874 239.7439 277.36875 239.6022 276.59375 239.25 C 275.80405 238.8864 274.9516 238.3057 274 237.5 C 273.0624 236.6825 271.9965 235.61195 270.8125 234.28125 C 269.6144 232.92945 268.6345 231.77145 268 230.78125 C 267.3233 229.77685 266.8981 228.89495 266.6875 228.15625 C 266.5471 227.40915 266.5317 226.75445 266.8125 226.21875 C 267.0734 225.68025 267.58465 225.187 268.21875 224.75 C 268.83225 224.3454 269.4905 224.1335 270.125 224.0625 C 270.2853 224.04313 270.42471 224.02341 270.59375 224.03125 z "
       transform="translate(0,540.36218)"
       id="path3284" />
    <path
       style="font-size:5.79929924px;font-style:normal;font-variant:normal;font-weight:bold;font-stretch:normal;text-align:start;line-height:125%;writing-mode:lr-tb;text-anchor:start;fill:#000000;fill-opacity:1;stroke:none;display:inline;font-family:Liberation Mono;-inkscape-font-specification:Liberation Mono Bold"
       d="m 296.19983,773.80611 -2.7698,-3.1138 6.5407,-4.3269 -11.8268,-13.2765 c 0.1404,0.5427 0.1404,1.1362 0,1.8008 -0.1404,0.6414 -0.4227,1.2955 -0.7683,1.9544 -0.351,0.6485 -0.8315,1.292 -1.4094,1.927 -0.564,0.6132 -1.2336,1.17 -1.9738,1.657 l -2.8334,-3.1878 c 0.8249,-0.5498 1.5226,-1.1419 2.0865,-1.7868 0.564,-0.6413 1.0218,-1.3137 1.3533,-2.0051 0.351,-0.6978 0.4934,-1.4047 0.5636,-2.1208 0.07,-0.7203 0,-1.428 -0.07,-2.1173 l 4.4686,-2.9595 15.1324,16.986 5.4342,-3.596 2.7698,3.1146 -16.7041,11.0507"
       id="path3404" />
    <path
       style="font-size:5.79929924px;font-style:normal;font-variant:normal;font-weight:bold;font-stretch:normal;text-align:start;line-height:125%;writing-mode:lr-tb;text-anchor:start;fill:#000000;fill-opacity:1;stroke:none;display:inline;font-family:Liberation Mono;-inkscape-font-specification:Liberation Mono Bold"
       d="M 252.40625 272.84375 C 251.71906 272.85531 251.0546 272.95595 250.40625 273.125 C 249.10205 273.4654 247.87475 274.01865 246.71875 274.78125 C 245.48555 275.59815 244.52105 276.4921 243.78125 277.5 C 243.02695 278.5114 242.59375 279.67475 242.59375 280.96875 C 242.55125 282.25855 242.9192 283.7062 243.6875 285.3125 C 244.4558 286.9187 245.724 288.72195 247.5 290.71875 C 249.1985 292.62595 250.8444 294.11035 252.4375 295.15625 C 254.0303 296.18455 255.56525 296.8494 257.03125 297.1875 C 258.50425 297.5471 259.9107 297.553 261.25 297.25 C 262.5889 296.9314 263.84675 296.37955 265.03125 295.59375 C 266.22225 294.80785 267.1703 293.88765 267.875 292.84375 C 268.5953 291.80065 268.9375 290.65335 268.9375 289.34375 C 268.973 288.01245 268.6152 286.5276 267.875 284.9375 C 267.1352 283.3256 265.91015 281.5842 264.21875 279.6875 L 264.21875 279.625 C 262.44265 277.6283 260.77055 276.1113 259.15625 275.0625 C 257.54245 274.0152 255.99015 273.32685 254.53125 273.03125 C 253.80525 272.88695 253.09344 272.83219 252.40625 272.84375 z M 252 277.3125 C 252.50618 277.33696 253.07478 277.48593 253.65625 277.75 C 254.43865 278.1039 255.28855 278.6824 256.21875 279.5 C 257.17735 280.3055 258.2734 281.40965 259.5 282.78125 L 259.4375 282.78125 C 260.6216 284.11195 261.5534 285.27895 262.1875 286.28125 C 262.8361 287.27925 263.25815 288.14925 263.46875 288.90625 C 263.67955 289.65265 263.61685 290.30105 263.40625 290.84375 C 263.15275 291.37025 262.7591 291.81695 262.125 292.21875 C 261.4834 292.64525 260.79085 292.89175 260.15625 292.96875 C 259.49365 293.02505 258.7753 292.88345 258 292.53125 C 257.2177 292.16695 256.35085 291.59105 255.40625 290.78125 C 254.46205 289.96795 253.40975 288.8931 252.21875 287.5625 C 251.02025 286.2107 250.04035 285.02575 249.40625 284.03125 C 248.72255 283.03035 248.30435 282.1762 248.09375 281.4375 C 247.95335 280.6912 247.93795 280.0286 248.21875 279.5 C 248.48665 278.9609 248.9905 278.4995 249.625 278.0625 C 250.2381 277.6509 250.89715 277.41375 251.53125 277.34375 C 251.68988 277.3261 251.83127 277.30435 252 277.3125 z "
       transform="translate(0,540.36218)"
       id="path3300" />
    <path
       style="font-size:5.79929924px;font-style:normal;font-variant:normal;font-weight:bold;font-stretch:normal;text-align:start;line-height:125%;writing-mode:lr-tb;text-anchor:start;fill:#000000;fill-opacity:1;stroke:none;display:inline;font-family:Liberation Mono;-inkscape-font-specification:Liberation Mono Bold"
       d="m 277.61553,827.08911 -2.7772,-3.1145 6.5477,-4.3304 -11.8268,-13.2765 c 0.1404,0.5427 0.1404,1.1404 0,1.8008 -0.1404,0.6484 -0.4227,1.2989 -0.7749,1.958 -0.351,0.6484 -0.8319,1.2926 -1.4098,1.9269 -0.564,0.6203 -1.2332,1.17 -1.9664,1.6577 l -2.8404,-3.1885 c 0.8315,-0.5498 1.5296,-1.1454 2.0931,-1.7903 0.564,-0.6414 1.0152,-1.3095 1.3463,-2.001 0.2808,-0.6977 0.4934,-1.4089 0.564,-2.1214 0.07,-0.7238 0,-1.428 -0.07,-2.1172 l 4.4756,-2.9595 15.125,16.9866 5.4342,-3.596 2.7768,3.1146 -16.7037,11.0507"
       id="path3294" />
    <path
       style="font-size:5.79929924px;font-style:normal;font-variant:normal;font-weight:bold;font-stretch:normal;text-align:start;line-height:125%;writing-mode:lr-tb;text-anchor:start;fill:#000000;fill-opacity:1;stroke:none;display:inline;font-family:Liberation Mono;-inkscape-font-specification:Liberation Mono Bold"
       d="m 298.25993,813.42501 -2.7701,-3.1146 6.5477,-4.3311 -11.8268,-13.2758 c 0.1404,0.5356 0.1404,1.1404 0,1.8008 -0.1404,0.6485 -0.4227,1.2954 -0.7749,1.9537 -0.351,0.6485 -0.8319,1.2969 -1.4028,1.927 -0.564,0.6202 -1.2332,1.17 -1.9805,1.6612 l -2.8403,-3.1879 c 0.8314,-0.5497 1.5292,-1.146 2.1001,-1.7902 0.564,-0.6413 1.0152,-1.3102 1.3393,-2.0009 0.351,-0.6978 0.4933,-1.4097 0.5639,-2.1258 0.07,-0.7196 0,-1.4237 -0.07,-2.113 l 4.4757,-2.9637 15.1249,16.9867 5.4343,-3.5918 2.7698,3.1146 -16.7041,11.0508"
       id="path3292" />
    <path
       style="font-size:5.79929924px;font-style:normal;font-variant:normal;font-weight:bold;font-stretch:normal;text-align:start;line-height:125%;writing-mode:lr-tb;text-anchor:start;fill:#000000;fill-opacity:1;stroke:none;display:inline;font-family:Liberation Mono;-inkscape-font-specification:Liberation Mono Bold"
       d="m 318.91143,799.75651 -2.7772,-3.1145 6.5407,-4.3269 -11.8197,-13.2758 c 0.1404,0.5356 0.1404,1.1362 0,1.8001 -0.1404,0.6414 -0.4228,1.2954 -0.7679,1.9544 -0.351,0.6484 -0.8319,1.2927 -1.4099,1.927 -0.5639,0.6132 -1.2332,1.17 -1.9664,1.6577 l -2.8403,-3.1886 c 0.8244,-0.5497 1.5225,-1.1418 2.0861,-1.7859 0.5639,-0.6485 1.0222,-1.3138 1.3533,-2.0053 0.351,-0.6977 0.4933,-1.4053 0.5639,-2.1215 0.07,-0.7196 0,-1.4279 -0.07,-2.1172 l 4.4757,-2.9595 15.1249,16.9867 5.4343,-3.596 2.7768,3.1146 -16.7041,11.0507"
       id="path3406" />
  </g>
</svg>
