<?xml version="1.0" encoding="UTF-8" standalone="no"?>
<!-- Created with Inkscape (http://www.inkscape.org/) -->

<svg
   xmlns:dc="http://purl.org/dc/elements/1.1/"
   xmlns:cc="http://creativecommons.org/ns#"
   xmlns:rdf="http://www.w3.org/1999/02/22-rdf-syntax-ns#"
   xmlns:svg="http://www.w3.org/2000/svg"
   xmlns="http://www.w3.org/2000/svg"
   xmlns:sodipodi="http://sodipodi.sourceforge.net/DTD/sodipodi-0.dtd"
   xmlns:inkscape="http://www.inkscape.org/namespaces/inkscape"
   width="512"
   height="512"
   id="svg3345"
   version="1.1"
   inkscape:version="0.48.3.1 r9886"
   sodipodi:docname="libro.svg">
  <defs
     id="defs3347" />
  <sodipodi:namedview
     id="base"
     pagecolor="#ffffff"
     bordercolor="#666666"
     borderopacity="1.0"
     inkscape:pageopacity="0.0"
     inkscape:pageshadow="2"
     inkscape:zoom="0.35"
     inkscape:cx="-61.428571"
     inkscape:cy="520"
     inkscape:document-units="px"
     inkscape:current-layer="layer1"
     showgrid="false"
     showguides="true"
     inkscape:guide-bbox="true"
     inkscape:snap-nodes="false"
     inkscape:window-width="1280"
     inkscape:window-height="938"
     inkscape:window-x="0"
     inkscape:window-y="27"
     inkscape:window-maximized="1">
    <sodipodi:guide
       orientation="0,1"
       position="728.57143,64"
       id="guide3353" />
  </sodipodi:namedview>
  <metadata
     id="metadata3350">
    <rdf:RDF>
      <cc:Work
         rdf:about="">
        <dc:format>image/svg+xml</dc:format>
        <dc:type
           rdf:resource="http://purl.org/dc/dcmitype/StillImage" />
        <dc:title></dc:title>
      </cc:Work>
    </rdf:RDF>
  </metadata>
  <g
     inkscape:label="Capa 1"
     inkscape:groupmode="layer"
     id="layer1"
     transform="translate(0,-540.36218)">
    <g
       id="g3877"
       transform="translate(-589.71427,-327.42858)">
      <path
         style="font-size:medium;font-style:normal;font-variant:normal;font-weight:normal;font-stretch:normal;text-indent:0;text-align:start;text-decoration:none;line-height:normal;letter-spacing:normal;word-spacing:normal;text-transform:none;direction:ltr;block-progression:tb;writing-mode:lr-tb;text-anchor:start;baseline-shift:baseline;color:#000000;fill:#000000;fill-opacity:1;fill-rule:nonzero;stroke:none;stroke-width:3.49999976;marker:none;visibility:visible;display:inline;overflow:visible;enable-background:accumulate;font-family:Sans;-inkscape-font-specification:Sans"
         d="m 792.33364,981.71207 a 6.8256821,6.8256821 0 0 0 -1.7063,0.3654 L 695.32113,1010.84 a 6.8256821,6.8256821 0 0 0 -4.875,6.4594 l 0,241.5562 a 6.8256821,6.8256821 0 0 0 8.775,6.5813 l 95.30621,-28.7625 a 6.8256821,6.8256821 0 0 0 1.0967,-0.2438 6.8256821,6.8256821 0 0 0 0.975,0.2438 l 95.3062,28.7625 a 6.8256821,6.8256821 0 0 0 4.2658,0.122 6.8256825,6.8256825 0 0 0 0.1209,0 6.8256825,6.8256825 0 0 0 4.5092,-0.122 l 95.3063,-28.7625 a 6.8256825,6.8256825 0 0 0 4.87496,-6.5813 l 0,-241.55623 a 6.8256825,6.8256825 0 0 0 -7.06876,-6.825 6.8256825,6.8256825 0 0 0 -1.7062,0.3654 l -95.3063,28.76253 a 6.8256825,6.8256825 0 0 0 -0.3666,0.1221 6.8256825,6.8256825 0 0 0 -0.1209,0 6.8256821,6.8256821 0 0 0 -0.6092,-0.1221 l -95.3062,-28.76253 a 6.8256821,6.8256821 0 0 0 -2.6812,-0.3654 6.8256821,6.8256821 0 0 0 -2.3159,0.6094 6.8256821,6.8256821 0 0 0 -3.1687,-0.6094 z m 3.1687,13.0406 a 6.8256821,6.8256821 0 0 0 1.0967,0.3654 l 95.3062,28.76253 a 6.8256821,6.8256821 0 0 0 4.2658,0.1221 6.8256825,6.8256825 0 0 0 0.1209,0 6.8256825,6.8256825 0 0 0 4.5092,-0.1221 l 86.5313,-26.08123 0,227.29683 -90.4313,27.3 a 6.8256825,6.8256825 0 0 0 -0.3666,0.1221 6.8256825,6.8256825 0 0 0 -0.1209,0 6.8256821,6.8256821 0 0 0 -0.6092,-0.1221 l -95.3062,-28.7625 a 6.8256821,6.8256821 0 0 0 -2.6812,-0.3654 6.8256821,6.8256821 0 0 0 -2.0721,0.4875 6.8256821,6.8256821 0 0 0 -5.1188,-0.1221 l -86.53121,26.0813 0,-227.2969 90.43121,-27.30003 a 6.8256821,6.8256821 0 0 0 0.975,-0.3654 z"
         id="path3474"
         inkscape:connector-curvature="0" />
      <path
         style="font-size:medium;font-style:normal;font-variant:normal;font-weight:normal;font-stretch:normal;text-indent:0;text-align:start;text-decoration:none;line-height:normal;letter-spacing:normal;word-spacing:normal;text-transform:none;direction:ltr;block-progression:tb;writing-mode:lr-tb;text-anchor:start;baseline-shift:baseline;color:#000000;fill:#000000;fill-opacity:1;stroke:none;stroke-width:0.94992924;marker:none;visibility:visible;display:inline;overflow:visible;enable-background:accumulate;font-family:Sans;-inkscape-font-specification:Sans"
         d="m 794.52734,1000.5308 a 1.8525473,1.8525473 0 0 0 -1.7062,1.95 l 0,212.1844 a 1.8890625,1.8890625 0 0 0 3.7779,0 l 0,-212.1844 a 1.8525473,1.8525473 0 0 0 -2.0717,-1.95 z"
         id="path3476"
         inkscape:connector-curvature="0" />
      <path
         style="font-size:medium;font-style:normal;font-variant:normal;font-weight:normal;font-stretch:normal;text-indent:0;text-align:start;text-decoration:none;line-height:normal;letter-spacing:normal;word-spacing:normal;text-transform:none;direction:ltr;block-progression:tb;writing-mode:lr-tb;text-anchor:start;baseline-shift:baseline;color:#000000;fill:#000000;fill-opacity:1;stroke:none;stroke-width:0.94992924;marker:none;visibility:visible;display:inline;overflow:visible;enable-background:accumulate;font-family:Sans;-inkscape-font-specification:Sans"
         d="m 896.78024,1029.0496 a 1.8525473,1.8525473 0 0 0 -1.4625,1.8281 l 0,212.3062 a 1.88916,1.88916 0 0 0 3.7783,0 l 0,-212.3062 a 1.8525473,1.8525473 0 0 0 -2.3158,-1.8281 z"
         id="path3480"
         inkscape:connector-curvature="0" />
    </g>
  </g>
</svg>
