<?xml version="1.0" encoding="UTF-8" standalone="no"?>
<!-- Created with Inkscape (http://www.inkscape.org/) -->

<svg
   xmlns:dc="http://purl.org/dc/elements/1.1/"
   xmlns:cc="http://creativecommons.org/ns#"
   xmlns:rdf="http://www.w3.org/1999/02/22-rdf-syntax-ns#"
   xmlns:svg="http://www.w3.org/2000/svg"
   xmlns="http://www.w3.org/2000/svg"
   xmlns:sodipodi="http://sodipodi.sourceforge.net/DTD/sodipodi-0.dtd"
   xmlns:inkscape="http://www.inkscape.org/namespaces/inkscape"
   width="512"
   height="512"
   id="svg3345"
   version="1.1"
   inkscape:version="0.48.3.1 r9886"
   sodipodi:docname="revista-coleccion.svg">
  <defs
     id="defs3347" />
  <sodipodi:namedview
     id="base"
     pagecolor="#ffffff"
     bordercolor="#666666"
     borderopacity="1.0"
     inkscape:pageopacity="0.0"
     inkscape:pageshadow="2"
     inkscape:zoom="0.35"
     inkscape:cx="-61.428571"
     inkscape:cy="520"
     inkscape:document-units="px"
     inkscape:current-layer="layer1"
     showgrid="false"
     showguides="true"
     inkscape:guide-bbox="true"
     inkscape:snap-nodes="false"
     inkscape:window-width="1280"
     inkscape:window-height="938"
     inkscape:window-x="0"
     inkscape:window-y="27"
     inkscape:window-maximized="1">
    <sodipodi:guide
       orientation="0,1"
       position="728.57143,64"
       id="guide3353" />
  </sodipodi:namedview>
  <metadata
     id="metadata3350">
    <rdf:RDF>
      <cc:Work
         rdf:about="">
        <dc:format>image/svg+xml</dc:format>
        <dc:type
           rdf:resource="http://purl.org/dc/dcmitype/StillImage" />
        <dc:title></dc:title>
      </cc:Work>
    </rdf:RDF>
  </metadata>
  <g
     inkscape:label="Capa 1"
     inkscape:groupmode="layer"
     id="layer1"
     transform="translate(0,-540.36218)">
    <g
       id="g4414"
       transform="translate(317.42857,264)">
      <path
         inkscape:connector-curvature="0"
         style="font-size:medium;font-style:normal;font-variant:normal;font-weight:normal;font-stretch:normal;text-indent:0;text-align:start;text-decoration:none;line-height:normal;letter-spacing:normal;word-spacing:normal;text-transform:none;direction:ltr;block-progression:tb;writing-mode:lr-tb;text-anchor:start;baseline-shift:baseline;color:#000000;fill:#000000;fill-opacity:1;stroke:none;stroke-width:3.49999976;marker:none;visibility:visible;display:inline;overflow:visible;enable-background:accumulate;font-family:Sans;-inkscape-font-specification:Sans"
         d="m -108.04567,385.51158 a 6.8256821,6.8256821 0 0 0 -1.2187,0.24414 l -123.3375,36.44044 a 6.8256821,6.8256821 0 0 0 -3.4125,10.84707 l 42.1687,51.91836 a 6.8429314,6.8429314 0 0 0 5.6063,2.55956 6.8640624,6.8640624 0 0 0 0.1209,1.21875 6.8640624,6.8640624 0 0 0 0,0.12168 c -0.074,0.39624 -0.1287,0.81159 -0.1209,1.21914 l 0,146.98086 c 0,2.92929 2.0689,5.74431 4.875,6.58164 l 116.146598,35.1 c 1.7398,0.71643 3.7787,0.67119 5.4846,-0.12207 1.6727,0.76011 3.6566,0.80574 5.3625,0.12207 l 116.1467,-35.1 c 2.806,-0.83733 4.8925,-3.65235 4.875,-6.58164 l 0,-146.98086 c 0,-0.45786 -0.039,-0.89934 -0.1209,-1.34082 a 6.8640624,6.8640624 0 0 0 0.1209,-1.34082 6.8429314,6.8429314 0 0 0 6.3375,-2.43749 l 42.168702,-51.91836 a 6.8256821,6.8256821 0 0 0 -3.4125,-10.84707 L -10.789372,387.21822 a 6.8256821,6.8256821 0 0 0 -2.0721,-0.36582 6.8256821,6.8256821 0 0 0 -5.1188,2.55918 l -41.4375,51.06583 a 6.8256821,6.8256821 0 0 0 -0.4875,-0.4875 l -42.168698,-52.04083 a 6.8256821,6.8256821 0 0 0 -5.9717,-2.4375 z m -1.8283,14.62501 38.268698,47.04414 -110.052898,33.15 a 6.8429314,6.8429314 0 0 0 -1.5846,-4.02207 l -35.7091,-43.99707 109.0779,-32.175 z m 99.693698,1.34082 106.275,30.83418 -35.7091,43.99707 a 6.8429314,6.8429314 0 0 0 -1.5846,4.26543 l -107.0063,-32.29668 38.025,-46.8 z m 58.0125,90.06581 3.1688,0.975 0,139.54668 -111.2717,33.6375 c -0.5507,0.1365 -1.0842,0.34437 -1.5846,0.60918 -0.4613,-0.25662 -0.9535,-0.46371 -1.4625,-0.60918 l -111.271598,-33.6375 0,-139.54668 2.6812,-0.85332 107.371698,35.83125 112.3687,-35.95293 z"
         id="path3384" />
      <path
         style="font-size:medium;font-style:normal;font-variant:normal;font-weight:normal;font-stretch:normal;text-indent:0;text-align:start;text-decoration:none;line-height:normal;letter-spacing:normal;word-spacing:normal;text-transform:none;direction:ltr;block-progression:tb;writing-mode:lr-tb;text-anchor:start;baseline-shift:baseline;color:#000000;fill:#000000;fill-opacity:1;stroke:none;stroke-width:0.94992924;marker:none;visibility:visible;display:inline;overflow:visible;enable-background:accumulate;font-family:Sans;-inkscape-font-specification:Sans"
         d="m -65.267772,534.1274 a 1.8525473,1.8525473 0 0 0 -1.4625,1.82812 l 0,120.77813 a 1.8525473,1.8525473 0 1 0 3.6563,0 l 0,-120.77813 a 1.8525473,1.8525473 0 0 0 -2.1938,-1.82812 z"
         id="path3478"
         inkscape:connector-curvature="0" />
    </g>
  </g>
</svg>
