<?xml version="1.0" encoding="UTF-8" standalone="no"?>
<!-- Created with Inkscape (http://www.inkscape.org/) -->

<svg
   xmlns:dc="http://purl.org/dc/elements/1.1/"
   xmlns:cc="http://creativecommons.org/ns#"
   xmlns:rdf="http://www.w3.org/1999/02/22-rdf-syntax-ns#"
   xmlns:svg="http://www.w3.org/2000/svg"
   xmlns="http://www.w3.org/2000/svg"
   xmlns:sodipodi="http://sodipodi.sourceforge.net/DTD/sodipodi-0.dtd"
   xmlns:inkscape="http://www.inkscape.org/namespaces/inkscape"
   width="512"
   height="512"
   id="svg3345"
   version="1.1"
   inkscape:version="0.48.3.1 r9886"
   sodipodi:docname="facebook.svg">
  <defs
     id="defs3347" />
  <sodipodi:namedview
     id="base"
     pagecolor="#ffffff"
     bordercolor="#666666"
     borderopacity="1.0"
     inkscape:pageopacity="0.0"
     inkscape:pageshadow="2"
     inkscape:zoom="2.8"
     inkscape:cx="292.92213"
     inkscape:cy="275.36132"
     inkscape:document-units="px"
     inkscape:current-layer="layer1"
     showgrid="true"
     showguides="true"
     inkscape:guide-bbox="true"
     inkscape:snap-nodes="false"
     inkscape:window-width="1280"
     inkscape:window-height="938"
     inkscape:window-x="0"
     inkscape:window-y="27"
     inkscape:window-maximized="1">
    <sodipodi:guide
       orientation="0,1"
       position="728.57143,64"
       id="guide3353" />
    <inkscape:grid
       type="xygrid"
       id="grid3353"
       empspacing="8"
       visible="true"
       enabled="true"
       snapvisiblegridlinesonly="true"
       spacingx="0.8888px"
       spacingy="0.8888px" />
  </sodipodi:namedview>
  <metadata
     id="metadata3350">
    <rdf:RDF>
      <cc:Work
         rdf:about="">
        <dc:format>image/svg+xml</dc:format>
        <dc:type
           rdf:resource="http://purl.org/dc/dcmitype/StillImage" />
        <dc:title />
      </cc:Work>
    </rdf:RDF>
  </metadata>
  <g
     inkscape:label="Capa 1"
     inkscape:groupmode="layer"
     id="layer1"
     transform="translate(0,-540.36218)">
    <path
       inkscape:connector-curvature="0"
       id="path3454"
       d="m 203.09616,853.69419 c -1.69309,-0.53083 -3.00259,-1.73534 -3.85201,-3.54903 l -0.45589,-0.97579 0,-52.79841 0,-52.79802 0.40603,-1.00388 c 0.55405,-1.37342 2.07139,-2.89301 3.44481,-3.44589 l 1.00428,-0.403 52.79802,0 52.79802,0 1.12527,0.53043 c 1.3503,0.63817 2.44435,1.71212 3.0909,3.02923 l 0.47043,0.95676 0,53.13291 0,53.13291 -0.56937,1.04575 c -0.69066,1.27144 -1.73192,2.2647 -3.00103,2.85954 l -0.94993,0.45208 -14.44991,0.0722 -15.52134,0.0722 0,-22.34403 0,-22.34315 7.3424,0 c 5.67566,0 7.38016,-0.0722 7.50614,-0.20931 0.14842,-0.19028 2.2365,-15.79885 2.22469,-16.65091 l 0,-0.38055 -8.53432,0 -8.53471,0 0,-6.73585 c 0,-7.1491 0.0761,-8.01677 0.84103,-9.50933 0.49053,-0.96476 1.56067,-1.96562 2.61062,-2.4462 1.61092,-0.73798 3.01586,-0.87645 8.95332,-0.88289 4.82399,0 5.47543,-0.0722 5.56491,-0.274 0.0722,-0.15222 0.0989,-3.59558 0.0989,-7.66636 0,-5.66453 -0.0722,-7.46535 -0.2055,-7.67241 -0.27019,-0.35772 -3.76224,-0.60245 -10.33367,-0.73789 -3.85386,-0.0878 -5.15498,-0.0722 -6.77732,0.17125 -4.80223,0.63817 -8.41752,2.14859 -11.41435,4.76535 -3.64925,3.18448 -5.77919,7.17271 -6.84973,12.82934 -0.23594,1.2372 -0.30444,2.98659 -0.38436,9.78938 l -0.0989,8.28432 -7.4471,0.0839 -7.4471,0.0839 0,8.53363 0,8.5355 7.4471,0.0839 7.4471,0.0878 0.0722,22.29904 0.0722,22.29954 -29.39586,0 c -23.03811,0 -28.45723,-0.0722 -29.0345,-0.23594 z"
       style="fill:#000000;fill-opacity:1;display:inline"
       sodipodi:nodetypes="ccccccccccccccccccccccscccccsccccscccccccccccccccscc" />
  </g>
</svg>
