<?xml version="1.0" encoding="UTF-8" standalone="no"?>
<!-- Created with Inkscape (http://www.inkscape.org/) -->

<svg
   xmlns:dc="http://purl.org/dc/elements/1.1/"
   xmlns:cc="http://creativecommons.org/ns#"
   xmlns:rdf="http://www.w3.org/1999/02/22-rdf-syntax-ns#"
   xmlns:svg="http://www.w3.org/2000/svg"
   xmlns="http://www.w3.org/2000/svg"
   xmlns:sodipodi="http://sodipodi.sourceforge.net/DTD/sodipodi-0.dtd"
   xmlns:inkscape="http://www.inkscape.org/namespaces/inkscape"
   width="512"
   height="512"
   id="svg3345"
   version="1.1"
   inkscape:version="0.48.3.1 r9886"
   sodipodi:docname="tipo_djvu.svg">
  <defs
     id="defs3347" />
  <sodipodi:namedview
     id="base"
     pagecolor="#ffffff"
     bordercolor="#666666"
     borderopacity="1.0"
     inkscape:pageopacity="0.0"
     inkscape:pageshadow="2"
     inkscape:zoom="0.98994949"
     inkscape:cx="140.62825"
     inkscape:cy="403.51768"
     inkscape:document-units="px"
     inkscape:current-layer="layer1"
     showgrid="true"
     showguides="true"
     inkscape:guide-bbox="true"
     inkscape:snap-nodes="false"
     inkscape:window-width="1280"
     inkscape:window-height="938"
     inkscape:window-x="0"
     inkscape:window-y="27"
     inkscape:window-maximized="1">
    <sodipodi:guide
       orientation="0,1"
       position="728.57143,64"
       id="guide3353" />
    <inkscape:grid
       type="xygrid"
       id="grid3610"
       empspacing="24"
       visible="true"
       enabled="true"
       snapvisiblegridlinesonly="true"
       spacingx="0.8888px"
       spacingy="0.8888px" />
  </sodipodi:namedview>
  <metadata
     id="metadata3350">
    <rdf:RDF>
      <cc:Work
         rdf:about="">
        <dc:format>image/svg+xml</dc:format>
        <dc:type
           rdf:resource="http://purl.org/dc/dcmitype/StillImage" />
        <dc:title />
      </cc:Work>
    </rdf:RDF>
  </metadata>
  <g
     inkscape:label="Capa 1"
     inkscape:groupmode="layer"
     id="layer1"
     transform="translate(0,-540.36218)">
    <g
       id="g4732"
       transform="translate(-289.71429,-475.99997)">
      <path
         inkscape:connector-curvature="0"
         style="font-size:medium;font-style:normal;font-variant:normal;font-weight:normal;font-stretch:normal;text-indent:0;text-align:start;text-decoration:none;line-height:normal;letter-spacing:normal;word-spacing:normal;text-transform:none;direction:ltr;block-progression:tb;writing-mode:lr-tb;text-anchor:start;baseline-shift:baseline;opacity:0.98000004;color:#000000;fill:#000000;fill-opacity:1;stroke:none;stroke-width:3.5999999;marker:none;visibility:visible;display:inline;overflow:visible;enable-background:accumulate;font-family:Sans;-inkscape-font-specification:Sans"
         d="m 465.49726,1106.2185 0,7.0688 0,115.2326 -77.18462,0 0,150.6801 77.18462,0 0,54.2577 0,7.0684 7.0687,0 233.58281,0 7.0687,0 0,-7.0684 0,-257.0392 0,-2.925 -2.072,-2.072 -62.1563,-63.1309 -2.0717,-2.0721 -2.925,0 -171.42651,0 z m 14.0154,14.0155 155.33901,0 0,61.425 0,1.95 1.95,0 62.4,0 0,242.9016 -219.68901,0 0,-47.3106 192.28128,0 0,-150.6801 -192.28128,0 z m 159.23901,0 2.3159,0 58.1341,59.1095 0,0.3655 -60.45,0 z m -2.35292,139.0221 9.3842,0 0,56.55 c 0,10.34 -2.127,18.1556 -6.3375,23.6437 -4.2104,5.4881 -10.3712,8.2875 -18.525,8.2875 -16.1401,0 -23.86685,-10.7027 -24.2529,-32.175 l 0,-56.1845 9.3842,0 0,55.575 c 0,15.3913 5.0973,23.0345 15.3562,23.0345 9.8581,0 14.8235,-7.6857 14.9908,-23.1562 z m -215.45639,0.1217 17.1846,0 c 10.5927,3e-4 18.7371,3.6964 24.6187,11.2125 5.9147,7.5168 8.8967,17.9618 8.8967,31.4441 0,14.3567 -3.0253,25.3921 -9.1404,33.0279 -6.1153,7.6358 -14.9183,11.4563 -26.4471,11.4563 l -15.1125,0 z m 87.36795,0 9.3846,0 0,60.2066 c 0,8.5901 -2.3572,15.506 -7.0688,20.5967 -4.6784,5.0509 -10.9711,7.5562 -18.8908,7.5562 -7.2513,0 -12.6337,-1.1879 -16.2092,-3.5345 l 0,-9.8717 c 5.4132,2.4656 10.5659,3.6562 15.4779,3.6562 5.3801,0 9.5675,-1.6115 12.675,-4.7529 3.1079,-3.1816 4.53343,-7.683 4.6313,-13.5283 z m 19.20254,0 9.75,0 14.8688,55.2095 c 1.37,5.0509 2.8169,11.755 4.3875,19.9875 1.0358,-5.7665 2.5591,-12.5981 4.6312,-20.3529 l 14.625,-54.8441 9.9938,0 -24.4971,87.1408 -9.3842,0 z m -97.18589,9.3845 0,68.25 4.7529,0 c 17.7777,0 26.6908,-11.5857 26.6908,-34.6125 0,-22.43 -8.2664,-33.6375 -24.7408,-33.6375 z"
         id="path3418"
         sodipodi:nodetypes="cccccccccccccccccccccccccccccccccccccccccssssccsscccccscsccccscsccscscccccccccccccsssc" />
    </g>
  </g>
</svg>
