<?xml version="1.0" encoding="UTF-8" standalone="no"?>
<!-- Created with Inkscape (http://www.inkscape.org/) -->

<svg
   xmlns:dc="http://purl.org/dc/elements/1.1/"
   xmlns:cc="http://creativecommons.org/ns#"
   xmlns:rdf="http://www.w3.org/1999/02/22-rdf-syntax-ns#"
   xmlns:svg="http://www.w3.org/2000/svg"
   xmlns="http://www.w3.org/2000/svg"
   xmlns:sodipodi="http://sodipodi.sourceforge.net/DTD/sodipodi-0.dtd"
   xmlns:inkscape="http://www.inkscape.org/namespaces/inkscape"
   width="512"
   height="512"
   id="svg3345"
   version="1.1"
   inkscape:version="0.48.3.1 r9886"
   sodipodi:docname="tipo_pdf.svg">
  <defs
     id="defs3347" />
  <sodipodi:namedview
     id="base"
     pagecolor="#ffffff"
     bordercolor="#666666"
     borderopacity="1.0"
     inkscape:pageopacity="0.0"
     inkscape:pageshadow="2"
     inkscape:zoom="0.98994949"
     inkscape:cx="137.28997"
     inkscape:cy="289.63843"
     inkscape:document-units="px"
     inkscape:current-layer="layer1"
     showgrid="true"
     showguides="true"
     inkscape:guide-bbox="true"
     inkscape:snap-nodes="false"
     inkscape:window-width="1280"
     inkscape:window-height="938"
     inkscape:window-x="0"
     inkscape:window-y="27"
     inkscape:window-maximized="1">
    <sodipodi:guide
       orientation="0,1"
       position="728.57143,64"
       id="guide3353" />
    <inkscape:grid
       type="xygrid"
       id="grid3606"
       empspacing="24"
       visible="true"
       enabled="true"
       snapvisiblegridlinesonly="true"
       spacingx="0.8888px"
       spacingy="0.8888px" />
  </sodipodi:namedview>
  <metadata
     id="metadata3350">
    <rdf:RDF>
      <cc:Work
         rdf:about="">
        <dc:format>image/svg+xml</dc:format>
        <dc:type
           rdf:resource="http://purl.org/dc/dcmitype/StillImage" />
        <dc:title />
      </cc:Work>
    </rdf:RDF>
  </metadata>
  <g
     inkscape:label="Capa 1"
     inkscape:groupmode="layer"
     id="layer1"
     transform="translate(0,-540.36218)">
    <g
       id="g4692"
       transform="translate(964.57143,964)">
      <path
         inkscape:connector-curvature="0"
         style="font-size:medium;font-style:normal;font-variant:normal;font-weight:normal;font-stretch:normal;text-indent:0;text-align:start;text-decoration:none;line-height:normal;letter-spacing:normal;word-spacing:normal;text-transform:none;direction:ltr;block-progression:tb;writing-mode:lr-tb;text-anchor:start;baseline-shift:baseline;opacity:0.98000004;color:#000000;fill:#000000;fill-opacity:1;stroke:none;stroke-width:3.5999999;marker:none;visibility:visible;display:inline;overflow:visible;enable-background:accumulate;font-family:Sans;-inkscape-font-specification:Sans"
         d="m -789.67681,-333.78149 0,7.0688 0,116.78672 -76.29607,0 0,149.125975 76.29607,0 0,53.2475928 0,7.06840002 6.9466,0 234.71506,0 6.9467,0 0,-7.06840002 0,-256.0290878 0,-2.925 -1.95,-2.072 -62.1563,-63.1309 -2.0716,-2.0721 -2.925,0 -172.55886,0 z m 14.0154,14.0155 155.74006,0 0,61.425 0,1.95 1.95,0 62.8875,0 0,241.891488 -220.57756,0 0,-46.300493 175.13223,0 0,-149.125975 -175.13223,0 z m 159.64006,0 2.925,0 58.0125,58.9875 0,0.4875 -60.9375,0 z m -215.92972,139.14378 24.4967,0 c 20.7203,3e-4 31.0783,8.4505 31.0783,25.472 0,8.7095 -2.8061,15.4616 -8.4096,20.353 -5.5629,4.8917 -13.7327,7.4345 -24.375,7.4345 l -11.4562,0 0,33.881304 -11.3342,0 z m 70.77405,0 20.7187,0 c 12.7792,3e-4 22.6427,3.6964 29.7375,11.2125 7.1351,7.5168 10.725,17.9618 10.725,31.4441 0,14.3567 -3.7136,25.3921 -11.0904,33.0279 -7.3772,7.635804 -17.9018,11.456304 -31.8096,11.456304 l -18.2812,0 z m 80.925,0 50.8221,0 0,9.75 -39.6096,0 0,30.7125 37.2937,0 0,9.872 -37.2937,0 0,36.806304 -11.2125,0 z m -140.36485,9.3845 0,34.3688 10.2375,0 c 7.9817,0 13.6359,-1.4021 17.0625,-4.2658 3.4671,-2.863 5.2408,-7.3211 5.2408,-13.4059 0,-11.0959 -6.8496,-16.6971 -20.475,-16.6971 z m 70.77445,0 0,68.25 5.85,0 c 21.4457,0 32.175,-11.5857 32.175,-34.6125 0,-22.43 -9.986,-33.6375 -29.8596,-33.6375 z"
         id="path3416"
         sodipodi:nodetypes="cccccccccccccccccccccccccccccccccccccccccscscccccccscscccccccccccccccscsscccsssc" />
    </g>
  </g>
</svg>
