<?xml version="1.0" encoding="UTF-8" standalone="no"?>
<!-- Created with Inkscape (http://www.inkscape.org/) -->

<svg
   xmlns:dc="http://purl.org/dc/elements/1.1/"
   xmlns:cc="http://creativecommons.org/ns#"
   xmlns:rdf="http://www.w3.org/1999/02/22-rdf-syntax-ns#"
   xmlns:svg="http://www.w3.org/2000/svg"
   xmlns="http://www.w3.org/2000/svg"
   xmlns:sodipodi="http://sodipodi.sourceforge.net/DTD/sodipodi-0.dtd"
   xmlns:inkscape="http://www.inkscape.org/namespaces/inkscape"
   width="512"
   height="512"
   id="svg3345"
   version="1.1"
   inkscape:version="0.48.3.1 r9886"
   sodipodi:docname="tipo_epub.svg">
  <defs
     id="defs3347" />
  <sodipodi:namedview
     id="base"
     pagecolor="#ffffff"
     bordercolor="#666666"
     borderopacity="1.0"
     inkscape:pageopacity="0.0"
     inkscape:pageshadow="2"
     inkscape:zoom="1.05"
     inkscape:cx="270"
     inkscape:cy="247.61905"
     inkscape:document-units="px"
     inkscape:current-layer="layer1"
     showgrid="true"
     showguides="true"
     inkscape:guide-bbox="true"
     inkscape:snap-nodes="false"
     inkscape:window-width="1280"
     inkscape:window-height="938"
     inkscape:window-x="0"
     inkscape:window-y="27"
     inkscape:window-maximized="1">
    <sodipodi:guide
       orientation="0,1"
       position="728.57143,64"
       id="guide3353" />
    <inkscape:grid
       type="xygrid"
       id="grid3608"
       empspacing="24"
       visible="true"
       enabled="true"
       snapvisiblegridlinesonly="true"
       spacingx="0.8888px"
       spacingy="0.8888px" />
  </sodipodi:namedview>
  <metadata
     id="metadata3350">
    <rdf:RDF>
      <cc:Work
         rdf:about="">
        <dc:format>image/svg+xml</dc:format>
        <dc:type
           rdf:resource="http://purl.org/dc/dcmitype/StillImage" />
        <dc:title />
      </cc:Work>
    </rdf:RDF>
  </metadata>
  <g
     inkscape:label="Capa 1"
     inkscape:groupmode="layer"
     id="layer1"
     transform="translate(0,-540.36218)">
    <g
       id="g4772"
       transform="translate(-712.57144,-478.85717)">
      <path
         inkscape:connector-curvature="0"
         style="font-size:medium;font-style:normal;font-variant:normal;font-weight:normal;font-stretch:normal;text-indent:0;text-align:start;text-decoration:none;line-height:normal;letter-spacing:normal;word-spacing:normal;text-transform:none;direction:ltr;block-progression:tb;writing-mode:lr-tb;text-anchor:start;baseline-shift:baseline;opacity:0.98000004;color:#000000;fill:#000000;fill-opacity:1;stroke:none;stroke-width:3.5999999;marker:none;visibility:visible;display:inline;overflow:visible;enable-background:accumulate;font-family:Sans;-inkscape-font-specification:Sans"
         d="m 887.89193,1108.4699 0,7.0688 0,117.5378 -76.72195,0 0,149.5584 76.72195,0 0,53.2178 0,7.0684 7.0688,0 234.41967,0 7.0687,0 0,-7.0684 0,-257.1828 0,-2.925 -2.0717,-2.072 -62.1562,-63.1309 -2.0721,-2.0721 -2.925,0 -172.26337,0 z m 14.0159,14.0155 156.17587,0 0,61.425 0,1.95 1.95,0 62.4,0 0,243.0452 -220.52587,0 0,-46.2707 192.74337,0 0,-149.5584 -192.74337,0 z m 160.07587,0 2.3154,0 58.1346,59.1095 0,0.3655 -60.45,0 z m -67.29264,140.4367 9.26254,0 0,56.55 c 0,10.34 -2.127,18.1556 -6.33744,23.6437 -4.2105,5.4881 -10.3717,8.2875 -18.5251,8.2875 -16.1401,0 -24.61728,-10.7023 -24.2533,-32.175 l 0,-56.1845 9.3846,0 0,55.575 c 0,15.3909 5.0973,23.0345 15.3562,23.0345 9.8577,0 14.9452,-7.6857 15.1125,-23.1562 z m -167.83961,0.1217 42.1688,0 0,9.75 -32.7842,0 0,26.9345 30.8342,0 0,9.628 -30.8342,0 0,31.0783 32.7842,0 0,9.75 -42.1688,0 z m 63.28453,0 20.2313,0 c 17.1764,3e-4 25.8375,8.4505 25.8375,25.472 0,8.7095 -2.3018,15.4616 -6.9467,20.353 -4.6118,4.8917 -11.4094,7.4345 -20.2312,7.4345 l -9.5063,0 0,33.8813 -9.3846,0 z m 137.79052,0 22.0592,0 c 9.156,3e-4 15.7556,1.7409 19.8658,5.2408 4.1434,3.4601 6.2154,9.0636 6.2154,16.8187 0,5.0907 -1.2601,9.2945 -3.9,12.675 -2.6063,3.3805 -6.247,5.3781 -10.725,6.0938 l 0,0.6092 c 11.0944,2.1477 16.6971,9.0214 16.6971,20.475 0,7.8744 -2.182,14.031 -6.4596,18.525 -4.244,4.4939 -9.9543,6.7033 -17.3062,6.7033 l -26.4467,0 z m -128.40592,9.3845 0,34.3688 8.5312,0 c 6.6164,0 11.2972,-1.4021 14.1375,-4.2658 2.874,-2.8634 4.3875,-7.3211 4.3875,-13.4059 0,-11.0959 -5.646,-16.6971 -16.9408,-16.6971 z m 137.79012,0 0,27.5438 14.2595,0 c 5.2128,0 8.9619,-1.1033 11.3342,-3.2908 2.4063,-2.1872 3.6563,-5.7958 3.6563,-10.8467 0,-4.7725 -1.3268,-8.1694 -3.9,-10.2375 -2.5397,-2.0682 -6.6402,-3.1688 -12.1875,-3.1688 z m 0,36.8063 0,31.5658 15.3562,0 c 10.3927,0 15.6,-5.4347 15.6,-16.3316 0,-10.1014 -5.3823,-15.2342 -16.2092,-15.2342 z"
         id="path3494"
         sodipodi:nodetypes="cccccccccccccccccccccccccccccccccccccccccssssccsscccccccccccccccccscscccccccscccscsccccscsscccscscscccsssc" />
    </g>
  </g>
</svg>
