<?xml version="1.0" encoding="UTF-8" standalone="no"?>
<!-- Created with Inkscape (http://www.inkscape.org/) -->

<svg
   xmlns:dc="http://purl.org/dc/elements/1.1/"
   xmlns:cc="http://creativecommons.org/ns#"
   xmlns:rdf="http://www.w3.org/1999/02/22-rdf-syntax-ns#"
   xmlns:svg="http://www.w3.org/2000/svg"
   xmlns="http://www.w3.org/2000/svg"
   xmlns:sodipodi="http://sodipodi.sourceforge.net/DTD/sodipodi-0.dtd"
   xmlns:inkscape="http://www.inkscape.org/namespaces/inkscape"
   width="512"
   height="512"
   id="svg3345"
   version="1.1"
   inkscape:version="0.48.3.1 r9886"
   sodipodi:docname="institucion.svg">
  <defs
     id="defs3347" />
  <sodipodi:namedview
     id="base"
     pagecolor="#ffffff"
     bordercolor="#666666"
     borderopacity="1.0"
     inkscape:pageopacity="0.0"
     inkscape:pageshadow="2"
     inkscape:zoom="0.35"
     inkscape:cx="-61.428571"
     inkscape:cy="520"
     inkscape:document-units="px"
     inkscape:current-layer="layer1"
     showgrid="false"
     showguides="true"
     inkscape:guide-bbox="true"
     inkscape:snap-nodes="false"
     inkscape:window-width="1280"
     inkscape:window-height="938"
     inkscape:window-x="0"
     inkscape:window-y="27"
     inkscape:window-maximized="1">
    <sodipodi:guide
       orientation="0,1"
       position="728.57143,64"
       id="guide3353" />
  </sodipodi:namedview>
  <metadata
     id="metadata3350">
    <rdf:RDF>
      <cc:Work
         rdf:about="">
        <dc:format>image/svg+xml</dc:format>
        <dc:type
           rdf:resource="http://purl.org/dc/dcmitype/StillImage" />
        <dc:title></dc:title>
      </cc:Work>
    </rdf:RDF>
  </metadata>
  <g
     inkscape:label="Capa 1"
     inkscape:groupmode="layer"
     id="layer1"
     transform="translate(0,-540.36218)">
    <g
       id="g4080"
       transform="translate(-241.14286,-498.85718)">
      <path
         inkscape:connector-curvature="0"
         style="font-size:medium;font-style:normal;font-variant:normal;font-weight:normal;font-stretch:normal;text-indent:0;text-align:start;text-decoration:none;line-height:normal;letter-spacing:normal;word-spacing:normal;text-transform:none;direction:ltr;block-progression:tb;writing-mode:lr-tb;text-anchor:start;baseline-shift:baseline;color:#000000;fill:#000000;fill-opacity:1;stroke:none;stroke-width:3.49999976;marker:none;visibility:visible;display:inline;overflow:visible;enable-background:accumulate;font-family:Sans;-inkscape-font-specification:Sans"
         d="m 412.77612,1218.6268 -37.6596,5.2404 a 6.8256821,6.8256821 0 0 0 -0.1209,0 c -3.6391,0.5503 -6.8554,1.3404 -9.6283,2.3154 -2.7725,0.977 -5.1659,1.9496 -7.4342,4.7534 a 6.8256821,6.8256821 0 0 0 -1.4625,5.2408 l 32.053,231.4404 a 6.8256821,6.8256821 0 0 0 5.7283,5.85 6.8256821,6.8256821 0 0 0 0.1209,0 6.8339716,6.8339716 0 0 0 5.4846,1.7063 l 182.4466,-26.4467 a 6.834068,6.834068 0 0 0 -1.95,-13.5283 l -153.075,22.1812 152.7096,-29.4937 a 7.020702,7.020702 0 0 0 5.6063,-7.9217 l -3.0471,-21.9375 -14.2592,0 2.4375,17.3058 -170.9908,33.15 -29.1279,-209.625 c 1.5549,-0.498 3.6698,-1.0526 6.3375,-1.4625 l 0.1208,0 35.7096,-4.9966 0,-13.7717 z"
         id="path3382" />
      <path
         inkscape:connector-curvature="0"
         style="font-size:medium;font-style:normal;font-variant:normal;font-weight:normal;font-stretch:normal;text-indent:0;text-align:start;text-decoration:none;line-height:normal;letter-spacing:normal;word-spacing:normal;text-transform:none;direction:ltr;block-progression:tb;writing-mode:lr-tb;text-anchor:start;baseline-shift:baseline;color:#000000;fill:#000000;fill-opacity:1;stroke:none;stroke-width:3.5;marker:none;visibility:visible;display:inline;overflow:visible;enable-background:accumulate;font-family:Sans;-inkscape-font-specification:Sans"
         d="m 606.19152,1115.2768 a 6.2022137,7.5118231 0.69019277 0 0 0.1209,0.6092 l -176.9625,34.125 a 6.2022137,7.5118231 0.69019277 0 0 -0.6095,0.1216 6.2022137,7.5118231 0.69019277 0 0 -6.2155,8.1659 l 0,222.9091 a 6.2022137,7.5118231 0.69019277 0 0 0.6092,0.1221 6.8256825,6.8256825 0 0 0 6.3375,9.5063 l 201.5813,0 a 6.8256825,6.8256825 0 0 0 6.825,-6.825 l 0,-219.9842 a 6.8256825,6.8256825 0 0 0 -7.5563,-6.9471 6.8256825,6.8256825 0 0 0 -6.0937,6.9471 l 0,213.1592 -144.9092,0 126.9937,-24.4967 a 6.2022137,7.5118231 0.69019277 0 0 6.825,-8.2875 l 0,-222.9096 a 6.2022137,7.5118231 0.69019277 0 0 -6.947,-6.2154 z m -6.5812,15.7217 0,209.2591 -163.5563,31.4442 0,-209.2596 163.5563,-31.4437 z"
         id="path3482" />
    </g>
  </g>
</svg>
