<?xml version="1.0" encoding="UTF-8" standalone="no"?>
<!-- Created with Inkscape (http://www.inkscape.org/) -->

<svg
   xmlns:dc="http://purl.org/dc/elements/1.1/"
   xmlns:cc="http://creativecommons.org/ns#"
   xmlns:rdf="http://www.w3.org/1999/02/22-rdf-syntax-ns#"
   xmlns:svg="http://www.w3.org/2000/svg"
   xmlns="http://www.w3.org/2000/svg"
   xmlns:sodipodi="http://sodipodi.sourceforge.net/DTD/sodipodi-0.dtd"
   xmlns:inkscape="http://www.inkscape.org/namespaces/inkscape"
   width="512"
   height="512"
   id="svg3345"
   version="1.1"
   inkscape:version="0.48.3.1 r9886"
   sodipodi:docname="brand.svg">
  <defs
     id="defs3347" />
  <sodipodi:namedview
     id="base"
     pagecolor="#ffffff"
     bordercolor="#666666"
     borderopacity="1.0"
     inkscape:pageopacity="0.0"
     inkscape:pageshadow="2"
     inkscape:zoom="0.35"
     inkscape:cx="-61.428571"
     inkscape:cy="520"
     inkscape:document-units="px"
     inkscape:current-layer="layer1"
     showgrid="false"
     showguides="true"
     inkscape:guide-bbox="true"
     inkscape:snap-nodes="false"
     inkscape:window-width="1280"
     inkscape:window-height="938"
     inkscape:window-x="0"
     inkscape:window-y="27"
     inkscape:window-maximized="1">
    <sodipodi:guide
       orientation="0,1"
       position="728.57143,64"
       id="guide3353" />
  </sodipodi:namedview>
  <metadata
     id="metadata3350">
    <rdf:RDF>
      <cc:Work
         rdf:about="">
        <dc:format>image/svg+xml</dc:format>
        <dc:type
           rdf:resource="http://purl.org/dc/dcmitype/StillImage" />
        <dc:title></dc:title>
      </cc:Work>
    </rdf:RDF>
  </metadata>
  <g
     inkscape:label="Capa 1"
     inkscape:groupmode="layer"
     id="layer1"
     transform="translate(0,-540.36218)">
    <g
       id="g3765"
       transform="translate(-392.57143,-393.14288)">
      <path
         style="font-size:medium;font-style:normal;font-variant:normal;font-weight:normal;font-stretch:normal;text-indent:0;text-align:start;text-decoration:none;line-height:normal;letter-spacing:normal;word-spacing:normal;text-transform:none;direction:ltr;block-progression:tb;writing-mode:lr-tb;text-anchor:start;baseline-shift:baseline;color:#000000;fill:#000000;fill-opacity:1;stroke:none;stroke-width:3.5;marker:none;visibility:visible;display:inline;overflow:visible;enable-background:accumulate;font-family:Sans;-inkscape-font-specification:Sans"
         d="m 767.65868,1066.9008 a 6.8256825,6.8256825 0 0 0 -6.0937,6.825 l 0,278.2406 -232.6596,0 a 6.8256825,6.8256825 0 1 0 0,13.65 l 239.4846,0 a 6.8256825,6.8256825 0 0 0 6.825,-6.825 l 0,-285.0656 a 6.8256825,6.8256825 0 0 0 -7.5563,-6.825 z"
         id="path3470"
         inkscape:connector-curvature="0" />
      <path
         style="font-size:medium;font-style:normal;font-variant:normal;font-weight:normal;font-stretch:normal;text-indent:0;text-align:start;text-decoration:none;line-height:normal;letter-spacing:normal;word-spacing:normal;text-transform:none;direction:ltr;block-progression:tb;writing-mode:lr-tb;text-anchor:start;baseline-shift:baseline;color:#000000;fill:#000000;fill-opacity:1;fill-rule:nonzero;stroke:none;stroke-width:3.53546667;marker:none;visibility:visible;display:inline;overflow:visible;enable-background:accumulate;font-family:Sans;-inkscape-font-specification:Sans"
         d="m 528.02008,1057.8321 a 6.1715074,7.549198 39.266171 0 0 -6.0918,8.1826 l 0,288.7219 a 6.1715074,7.549198 39.266171 0 0 6.8082,5.5658 l 217.7429,-44.1723 a 6.1715074,7.549198 39.266171 0 0 6.6888,-8.3038 l 0,-288.7219 a 6.1715074,7.549198 39.266171 0 0 -6.6888,-5.5899 l -217.7429,44.1723 a 6.1715074,7.549198 39.266171 0 0 -0.7164,0.1454 z m 7.4053,12.2696 204.2457,-41.4342 0,275.0718 -204.2457,41.4343 0,-275.0719 z"
         id="path3472"
         inkscape:connector-curvature="0" />
    </g>
  </g>
</svg>
