<?xml version="1.0" encoding="UTF-8" standalone="no"?>
<!-- Created with Inkscape (http://www.inkscape.org/) -->

<svg
   xmlns:dc="http://purl.org/dc/elements/1.1/"
   xmlns:cc="http://creativecommons.org/ns#"
   xmlns:rdf="http://www.w3.org/1999/02/22-rdf-syntax-ns#"
   xmlns:svg="http://www.w3.org/2000/svg"
   xmlns="http://www.w3.org/2000/svg"
   xmlns:sodipodi="http://sodipodi.sourceforge.net/DTD/sodipodi-0.dtd"
   xmlns:inkscape="http://www.inkscape.org/namespaces/inkscape"
   width="512"
   height="512"
   id="svg3345"
   version="1.1"
   inkscape:version="0.48.3.1 r9886"
   sodipodi:docname="twitter.svg">
  <defs
     id="defs3347" />
  <sodipodi:namedview
     id="base"
     pagecolor="#ffffff"
     bordercolor="#666666"
     borderopacity="1.0"
     inkscape:pageopacity="0.0"
     inkscape:pageshadow="2"
     inkscape:zoom="3.959798"
     inkscape:cx="270.35068"
     inkscape:cy="265.61244"
     inkscape:document-units="px"
     inkscape:current-layer="layer1"
     showgrid="true"
     showguides="true"
     inkscape:guide-bbox="true"
     inkscape:snap-nodes="false"
     inkscape:window-width="1280"
     inkscape:window-height="938"
     inkscape:window-x="0"
     inkscape:window-y="27"
     inkscape:window-maximized="1">
    <sodipodi:guide
       orientation="0,1"
       position="728.57143,64"
       id="guide3353" />
    <inkscape:grid
       type="xygrid"
       id="grid3399"
       empspacing="8"
       visible="true"
       enabled="true"
       snapvisiblegridlinesonly="true"
       spacingx="0.8888px"
       spacingy="0.8888px" />
  </sodipodi:namedview>
  <metadata
     id="metadata3350">
    <rdf:RDF>
      <cc:Work
         rdf:about="">
        <dc:format>image/svg+xml</dc:format>
        <dc:type
           rdf:resource="http://purl.org/dc/dcmitype/StillImage" />
        <dc:title />
      </cc:Work>
    </rdf:RDF>
  </metadata>
  <g
     inkscape:label="Capa 1"
     inkscape:groupmode="layer"
     id="layer1"
     transform="translate(0,-540.36218)">
    <g
       id="g4961"
       transform="translate(-362.40556,-201.71427)">
      <path
         style="fill:#000000;fill-opacity:1;display:inline"
         d="m 597.9623,1048.1122 c 8.6342,-0.4266 16.2579,-2.035 23.8734,-5.0516 2.2495,-0.8916 6.6983,-3.0627 8.8238,-4.3084 7.4302,-4.3516 13.7888,-9.8728 19.2983,-16.7591 6.1839,-7.7309 10.9824,-17.2126 13.668,-27.00747 1.7062,-6.2208 2.496,-11.9913 2.5393,-18.5468 l 0,-3.5197 0.941,-0.7204 c 3.8489,-2.9558 7.1577,-6.2833 9.938,-9.9957 1.115,-1.4882 1.5335,-2.1157 1.4606,-2.1883 -0.066,0 -0.7052,0.1911 -1.4902,0.507 -2.5666,1.0253 -4.9827,1.7788 -7.6179,2.3728 -1.8287,0.4192 -4.0981,0.7925 -4.4702,0.7492 -0.2808,0 -0.2769,-0.074 0.2418,-0.4189 2.2726,-1.6103 4.2955,-3.4585 5.7424,-5.2482 1.5362,-1.8981 2.895,-4.2054 3.7873,-6.4284 0.5109,-1.2757 0.5776,-1.5311 0.3744,-1.5311 -0.066,0 -0.7839,0.3588 -1.5975,0.8038 -3.5599,1.9371 -7.8179,3.5864 -11.7394,4.5485 -2.597,0.6393 -2.2861,0.6685 -3.4573,-0.4266 -3.8801,-3.6375 -8.4135,-5.8527 -13.7818,-6.7326 -1.686,-0.273 -5.7962,-0.273 -7.4521,0 -5.4745,0.9153 -10.0059,3.1559 -13.8115,6.8336 -4.6511,4.4928 -7.2661,10.1482 -7.7041,16.66 -0.1482,2.1559 0.078,5.2564 0.5035,6.96 0.082,0.3315 -0.094,0.351 -1.5389,0.2496 -19.1502,-1.4754 -36.5231,-10.2024 -49.0792,-24.6535 -0.7382,-0.849 -1.3958,-1.5308 -1.4617,-1.5132 -0.2301,0.074 -1.5729,2.9519 -2.0592,4.4132 -1.0035,3.0186 -1.3006,4.8899 -1.2991,8.176 8e-4,2.6871 0.156,3.9394 0.7523,6.295 1.4087,5.5122 4.6578,10.3915 9.2567,13.9015 l 0.9173,0.6981 -0.4903,0 c -1.918,0.1365 -6.3843,-0.9859 -9.1981,-2.3216 -0.6817,-0.3237 -1.3104,-0.5659 -1.3954,-0.5289 -0.3276,0.1248 0.066,3.8127 0.6442,6.2248 2.1482,8.7489 9.0644,15.88117 17.683,18.23907 0.7122,0.1911 1.3112,0.4131 1.3315,0.4704 0.066,0.1248 -1.06,0.39 -2.7339,0.6392 -1.6248,0.2496 -5.2155,0.2496 -6.7591,0 -1.381,-0.2106 -1.3069,-0.2223 -1.3061,0 4e-4,0.3081 1.1049,2.9359 1.6719,3.976 4.2108,7.7252 11.7944,12.6427 20.5511,13.3263 0.5233,0.074 0.9734,0.117 1.0027,0.1638 0,0.074 -0.4431,0.4482 -1.0573,0.8955 -7.9779,5.7942 -16.9795,9.041 -26.9147,9.7075 -2.622,0.1833 -6.2154,0.1053 -8.2871,-0.1755 -0.4169,-0.074 -0.5176,-0.074 -0.4836,0.074 0.1131,0.3549 5.2841,3.2483 8.2746,4.6226 10.6568,4.8953 22.0685,7.0899 33.8762,6.5138 z"
         id="path3452"
         inkscape:connector-curvature="0" />
    </g>
  </g>
</svg>
