<?xml version="1.0" encoding="UTF-8" standalone="no"?>
<!-- Created with Inkscape (http://www.inkscape.org/) -->

<svg
   xmlns:dc="http://purl.org/dc/elements/1.1/"
   xmlns:cc="http://creativecommons.org/ns#"
   xmlns:rdf="http://www.w3.org/1999/02/22-rdf-syntax-ns#"
   xmlns:svg="http://www.w3.org/2000/svg"
   xmlns="http://www.w3.org/2000/svg"
   xmlns:sodipodi="http://sodipodi.sourceforge.net/DTD/sodipodi-0.dtd"
   xmlns:inkscape="http://www.inkscape.org/namespaces/inkscape"
   width="512"
   height="512"
   id="svg3345"
   version="1.1"
   inkscape:version="0.48.3.1 r9886"
   sodipodi:docname="con_mapas.svg">
  <defs
     id="defs3347" />
  <sodipodi:namedview
     id="base"
     pagecolor="#ffffff"
     bordercolor="#666666"
     borderopacity="1.0"
     inkscape:pageopacity="0.0"
     inkscape:pageshadow="2"
     inkscape:zoom="1.979899"
     inkscape:cx="279.03279"
     inkscape:cy="242.33184"
     inkscape:document-units="px"
     inkscape:current-layer="layer1"
     showgrid="true"
     showguides="true"
     inkscape:guide-bbox="true"
     inkscape:snap-nodes="false"
     inkscape:window-width="1280"
     inkscape:window-height="938"
     inkscape:window-x="0"
     inkscape:window-y="27"
     inkscape:window-maximized="1">
    <sodipodi:guide
       orientation="0,1"
       position="728.57143,64"
       id="guide3353" />
    <inkscape:grid
       type="xygrid"
       id="grid3722"
       empspacing="24"
       visible="true"
       enabled="true"
       snapvisiblegridlinesonly="true"
       spacingx="0.8888px"
       spacingy="0.8888px" />
  </sodipodi:namedview>
  <metadata
     id="metadata3350">
    <rdf:RDF>
      <cc:Work
         rdf:about="">
        <dc:format>image/svg+xml</dc:format>
        <dc:type
           rdf:resource="http://purl.org/dc/dcmitype/StillImage" />
        <dc:title />
      </cc:Work>
    </rdf:RDF>
  </metadata>
  <g
     inkscape:label="Capa 1"
     inkscape:groupmode="layer"
     id="layer1"
     transform="translate(0,-540.36218)">
    <path
       id="path3408"
       d="m 256,671.02605 c -51.7191,0 -93.8438,42.05916 -93.8438,93.72168 0,51.66253 42.1247,93.72173 93.8438,93.72173 51.7191,0 93.8437,-42.0592 93.8437,-93.72173 0,-51.66252 -42.1246,-93.72168 -93.8437,-93.72168 z m -1.4625,14.01543 0,16.81875 c -3.4628,-0.16731 -6.8683,-0.90831 -10.1154,-2.31582 2.5759,-5.06259 5.4966,-9.86739 8.775,-14.38086 0.443,-0.0156 0.8954,-0.11427 1.3404,-0.12207 z m 2.925,0 c 0.2028,0.004 0.4083,-0.004 0.6096,0 3.3637,4.63047 6.2591,9.65835 8.8966,14.86875 -2.985,1.1934 -6.2236,1.91529 -9.5062,2.07168 l 0,-16.94043 z m 4.1437,0.24375 c 0.7812,0.0538 1.5413,0.1677 2.3159,0.24375 0.082,0.008 0.1637,-0.008 0.2457,0 4.2845,2.49132 8.2496,5.29932 11.9437,8.16543 -1.9133,2.02098 -4.0115,3.70071 -6.4596,4.99707 -2.3778,-4.70223 -5.086,-9.14628 -8.0437,-13.40625 z m -11.9437,0.12168 c -2.8384,4.11255 -5.4951,8.40918 -7.8,12.91914 -2.2807,-1.28505 -4.416,-2.9913 -6.3375,-4.99707 3.5591,-2.73429 7.3515,-5.28957 11.4562,-7.67793 0.8916,-0.0998 1.7812,-0.17355 2.6813,-0.24414 z m 22.0596,1.21914 c 2.728,0.5421 5.4245,1.26009 8.0437,2.07168 -0.5,0.91689 -0.9867,1.86108 -1.5846,2.68125 -2.0763,-1.6263 -4.2104,-3.2331 -6.4591,-4.75293 z m -32.2971,0.24336 c -2.0534,1.39074 -4.063,2.78304 -5.9717,4.26582 -0.5554,-0.71838 -1.0885,-1.52373 -1.5846,-2.31582 2.4605,-0.77532 4.9987,-1.4118 7.5563,-1.95 z m -10.2375,2.925 c 0.6622,1.08576 1.319,2.19999 2.0721,3.16914 -7.2973,6.006 -13.4827,12.6204 -18.4034,19.86543 -3.4261,-2.25381 -6.658,-4.85745 -9.75,-7.67793 7.5399,-6.66705 16.3937,-11.91177 26.0813,-15.35664 z m 53.625,0 c 9.5476,3.39495 18.2489,8.58273 25.7158,15.1125 -3.2066,2.97804 -6.5056,5.71194 -9.9937,8.04414 -4.8286,-7.15494 -10.7695,-13.78923 -17.9159,-19.74414 0.7972,-1.07718 1.5639,-2.19921 2.1938,-3.4125 z m -49.725,5.3625 c 2.2093,2.3634 4.7771,4.22526 7.4346,5.72832 -3.2406,6.74076 -5.8415,13.8372 -7.9221,21.20625 -5.9249,-1.88214 -11.7652,-4.39881 -17.1842,-7.67793 4.7677,-6.9615 10.6018,-13.46709 17.6717,-19.25664 z m 45.4596,0.36582 c 6.9821,5.76732 12.8352,12.21987 17.55,19.13418 -5.5131,3.38871 -11.3631,5.95257 -17.3063,7.8 -2.037,-7.29456 -4.6262,-14.39841 -7.8,-21.08418 2.8306,-1.49877 5.3543,-3.4866 7.5563,-5.85 z m -35.4659,6.70332 c 3.6676,1.65126 7.5481,2.49015 11.4563,2.68086 l 0,20.9625 c -6.4662,-0.13689 -12.8743,-1.06938 -19.1342,-2.80293 2.0112,-7.2345 4.5334,-14.24397 7.6779,-20.84043 z m 25.2284,0.36543 c 3.1211,6.57501 5.6756,13.5174 7.6779,20.71875 -6.0661,1.62825 -12.3287,2.3322 -18.525,2.4375 l 0,-20.71875 c 3.7342,-0.16068 7.4232,-1.02492 10.8471,-2.4375 z m 42.4125,4.26543 c 7.2387,6.81915 13.1457,14.89956 17.4279,24.00957 -5.8719,2.80371 -11.7535,5.32779 -17.6717,7.43457 -2.3302,-7.92909 -5.6854,-15.67176 -10.2375,-22.9125 3.668,-2.45388 7.1194,-5.37225 10.4813,-8.53164 z m -109.8096,0.36582 c 3.2892,2.9757 6.7325,5.66397 10.3596,8.04375 -4.5658,7.20837 -8.0029,14.89644 -10.3596,22.79043 -5.7611,-1.96794 -11.5327,-4.16871 -17.3063,-6.70293 4.2245,-9.15096 10.1069,-17.26062 17.3063,-24.13125 z m 12.9187,9.62832 c 5.6929,3.44448 11.6794,6.2088 17.9159,8.16543 -1.7172,6.60816 -2.966,13.35165 -3.7784,20.23125 -8.1182,-1.44885 -16.2173,-3.55836 -24.375,-6.21582 2.2913,-7.70094 5.7576,-15.15657 10.2375,-22.18086 z m 83.7284,0.24336 c 4.4799,7.05081 7.8393,14.4534 10.1154,22.18164 -8.0796,2.71674 -16.2119,4.81338 -24.375,6.21543 -0.798,-6.85542 -2.083,-13.64532 -3.7779,-20.23125 6.1986,-1.91802 12.2939,-4.64412 18.0375,-8.16582 z m -62.8875,8.775 c 6.4747,1.76709 13.1788,2.79747 19.8654,2.925 l 0,18.89082 c -7.7938,-0.1092 -15.6784,-0.81822 -23.5217,-2.07168 0.7796,-6.70839 2.0108,-13.30992 3.6563,-19.74414 z m 42.1687,0.12207 c 1.6563,6.46347 2.7546,13.12818 3.5342,19.86543 -7.6206,1.16376 -15.2315,1.91607 -22.9125,1.95 l 0,-19.13418 c 6.5009,-0.11466 13.0186,-0.96057 19.3783,-2.68125 z m 52.65,7.55625 c 3.8782,9.1416 6.0278,19.21023 6.2154,29.7375 l -21.45,0 c -0.1092,-7.4451 -1.0319,-14.90385 -2.925,-22.18125 6.0895,-2.15475 12.1384,-4.6644 18.1596,-7.55625 z m -147.1033,0.36582 c 5.8941,2.60403 11.7795,4.94247 17.6721,6.94668 -1.9465,7.35891 -2.934,14.89215 -3.0471,22.425 l -20.7188,0 c 0.1872,-10.39272 2.3073,-20.32485 6.0938,-29.37168 z m 20.475,7.92168 c 8.275,2.67696 16.6124,4.758 24.8625,6.21582 -0.5051,5.04309 -0.7036,10.14546 -0.7313,15.23418 l -27.0562,0 c 0.1053,-7.21617 1.0818,-14.40933 2.925,-21.45 z m 105.6658,0.24375 c 1.7956,6.94473 2.6988,14.08953 2.8029,21.20625 l -26.9341,0 c -0.039,-5.02593 -0.3627,-10.00974 -0.8534,-14.99082 8.3593,-1.4157 16.7197,-3.44916 24.9846,-6.21543 z m -77.8783,6.3375 c 8.0102,1.27413 15.9213,2.08767 23.8875,2.19375 l 0,12.675 -24.4967,0 c 0.039,-4.96548 0.1287,-9.95163 0.6092,-14.86875 z m 49.9687,0.36543 c 0.4645,4.80012 0.7048,9.65835 0.7313,14.50332 l -23.8875,0 0,-12.675 c 7.7321,-0.0351 15.4841,-0.67314 23.1562,-1.82832 z m -104.325,17.42832 20.7188,0 c 0,0.40677 0,0.81198 0,1.21875 0.2106,7.30628 1.2995,14.61208 3.1687,21.69378 -5.8355,1.982 -11.7031,4.2638 -17.55,6.825 -3.891,-9.1549 -6.1495,-19.1915 -6.3375,-29.73753 z m 23.6438,0 26.9346,0 c 0.066,5.25523 0.5343,10.51163 1.0966,15.72163 -8.3179,1.4528 -16.6405,3.521 -24.9841,6.2159 -1.7866,-6.8071 -2.8431,-13.8197 -3.0471,-20.84085 0,-0.36309 0,-0.73281 0,-1.09668 z m 29.9812,0 24.6188,0 0,13.16253 c -7.8199,0.1025 -15.6652,0.8435 -23.5217,2.0717 -0.5503,-5.0599 -1.0319,-10.1241 -1.0971,-15.23423 z m 27.5438,0 24.0096,0 c -0.062,5.02553 -0.5663,10.01013 -1.0971,14.99083 -7.6183,-1.1361 -15.2412,-1.7909 -22.9125,-1.8283 l 0,-13.16253 z m 26.9346,0 26.9341,0 c 0,0.36348 0,0.73398 0,1.09668 -0.2028,6.94315 -1.1848,13.85825 -2.925,20.59705 -8.3062,-2.7694 -16.7048,-4.8071 -25.1062,-6.2154 0.5487,-5.1328 1.0323,-10.3011 1.0971,-15.47833 z m 29.8591,0 21.45,0 c -0.1911,10.68253 -2.4741,20.85333 -6.4592,30.10333 -5.9697,-2.8447 -11.9975,-5.3048 -18.0374,-7.4346 1.8271,-6.9997 2.8376,-14.233 3.0466,-21.44998 0,-0.40677 0,-0.81198 0,-1.21875 z m -56.7937,15.96583 c 7.5948,0.035 15.1324,0.6903 22.6687,1.8279 -0.8377,6.7416 -1.9761,13.3922 -3.6562,19.8655 -6.2623,-1.6657 -12.6193,-2.5737 -19.0125,-2.6809 l 0,-19.0125 z m -2.925,0.1217 0,18.8908 c -6.5524,0.1256 -13.1422,1.0955 -19.5,2.8029 -1.6766,-6.4167 -2.932,-13.0603 -3.7779,-19.7437 7.7571,-1.2281 15.5691,-1.842 23.2779,-1.95 z m 28.5187,2.1937 c 8.206,1.3966 16.375,3.4909 24.4971,6.2154 -2.2678,7.7806 -5.4772,15.2849 -9.75,22.3034 -5.8898,-3.6426 -12.1563,-6.4569 -18.525,-8.4092 1.6981,-6.5657 2.9297,-13.283 3.7779,-20.1096 z m -54.8437,0.2438 c 0.8537,6.8094 2.081,13.5607 3.7783,20.1091 -6.3628,1.9785 -12.4804,4.7643 -18.2812,8.2876 -4.3072,-6.999 -7.694,-14.4152 -9.9938,-22.1809 8.2013,-2.6664 16.3355,-4.7713 24.4967,-6.2158 z m 82.1437,6.9467 c 5.8972,2.095 11.8174,4.5372 17.6721,7.3125 -4.2951,9.0226 -10.2246,17.1315 -17.4283,23.8875 -3.3053,-3.0869 -6.7595,-5.8766 -10.3592,-8.2875 4.3945,-7.2002 7.7696,-14.9296 10.1154,-22.9125 z m -109.4437,0.2441 c 2.3591,7.9544 5.8418,15.6164 10.2375,22.7904 -3.5143,2.3143 -6.9307,4.9144 -10.1154,7.8 -7.1519,-6.7957 -12.9484,-14.9651 -17.1846,-24.0095 5.6893,-2.4882 11.3852,-4.6414 17.0625,-6.5809 z m 53.625,12.3092 0,20.8408 c -3.7701,0.1837 -7.536,0.8943 -11.0904,2.4375 -3.0635,-6.584 -5.6457,-13.519 -7.6784,-20.7191 6.1429,-1.6603 12.4305,-2.4336 18.7688,-2.5592 z m 2.925,0 c 6.0797,0.1119 12.2027,0.9832 18.1596,2.5592 -2.0062,7.1299 -4.5393,14.0712 -7.5563,20.597 -3.3645,-1.3595 -6.9451,-2.2803 -10.6033,-2.4375 l 0,-20.7187 z m 21.0846,3.4125 c 6.0395,1.8653 11.9527,4.4713 17.55,7.9217 -4.6598,7.105 -10.3604,13.6453 -17.0625,19.3783 -2.3213,-2.6185 -5.1001,-4.728 -8.1659,-6.3375 3.0709,-6.6484 5.6422,-13.7214 7.6784,-20.9625 z m -45.7034,0.1217 c 2.0682,7.3608 4.664,14.4619 7.8,21.2066 -2.8528,1.5931 -5.5875,3.6344 -7.9216,6.2154 -6.8492,-5.7782 -12.6743,-12.3064 -17.4284,-19.5 5.5396,-3.3633 11.482,-6.0243 17.55,-7.922 z m 65.8125,9.3845 c 3.3458,2.248 6.5438,4.939 9.6284,7.8 -7.5321,6.529 -16.3379,11.5163 -25.9596,14.8688 -0.4836,-0.8557 -0.9005,-1.7671 -1.4625,-2.5592 6.9658,-5.9502 12.9573,-12.7241 17.7937,-20.1096 z m -85.9216,0.2438 c 4.8999,7.4353 10.9738,14.2638 18.0375,20.2312 -0.4981,0.6747 -0.8853,1.4625 -1.3409,2.1938 -9.7036,-3.4129 -18.5183,-8.5917 -26.0812,-15.2342 2.978,-2.6423 6.1226,-5.0341 9.3846,-7.1908 z m 44.7279,10.6033 c 3.2452,0.1544 6.4283,0.9036 9.3846,2.0717 -2.4785,5.0497 -5.3271,9.7511 -8.4096,14.2592 -0.3237,0.01 -0.6509,0.1162 -0.975,0.122 l 0,-16.4529 z m -4.5092,0.1217 c 0.5257,-0.053 1.0577,0.023 1.5842,0 l 0,16.3312 c -0.5257,-0.01 -1.0612,-0.1025 -1.5842,-0.122 -3.0108,-4.4191 -5.7225,-9.0859 -8.1658,-14.0155 2.6481,-1.1041 5.3605,-1.9102 8.1658,-2.1937 z m 16.575,3.1687 c 2.7632,1.4493 5.1195,3.363 7.1904,5.728 -2.9796,2.3805 -6.1585,4.5446 -9.5062,6.5816 -1.6466,0.2297 -3.3189,0.3588 -4.9967,0.4875 2.6606,-4.0724 5.1219,-8.3304 7.3125,-12.7971 z m -27.6658,0.3655 c 2.1442,4.3457 4.5938,8.4555 7.1908,12.4316 -1.5916,-0.1365 -3.1902,-0.2597 -4.7533,-0.4875 -3.2405,-1.9984 -6.3598,-4.1695 -9.2625,-6.4596 2.0401,-2.2366 4.3567,-4.0942 6.825,-5.4845 z m 36.6846,7.5566 c 0.3704,0.5421 0.6403,1.1263 0.975,1.7059 -1.6353,0.5011 -3.3186,0.9438 -4.9971,1.3408 1.3771,-0.9871 2.7116,-1.998 4.0221,-3.0467 z m -45.4596,0.2434 c 1.1318,0.8973 2.3548,1.7066 3.5346,2.5595 -1.4766,-0.3662 -2.9449,-0.7718 -4.3875,-1.2187 0.2886,-0.4353 0.5479,-0.9255 0.8529,-1.3408 z"
       style="font-size:medium;font-style:normal;font-variant:normal;font-weight:normal;font-stretch:normal;text-indent:0;text-align:start;text-decoration:none;line-height:normal;letter-spacing:normal;word-spacing:normal;text-transform:none;direction:ltr;block-progression:tb;writing-mode:lr-tb;text-anchor:start;baseline-shift:baseline;color:#000000;fill:#000000;fill-opacity:1;stroke:none;stroke-width:0.7585724;marker:none;visibility:visible;display:inline;overflow:visible;enable-background:accumulate;font-family:Sans;-inkscape-font-specification:Sans"
       inkscape:connector-curvature="0" />
    <path
       inkscape:connector-curvature="0"
       id="path3438"
       d="m 178.8533,877.80118 a 1.9736602,1.9736602 0 1 0 0.6092,3.9 l 153.075,0 a 1.950195,1.950195 0 1 0 0,-3.9 l -153.075,0 a 1.950195,1.950195 0 0 0 -0.6092,0 z"
       style="font-size:medium;font-style:normal;font-variant:normal;font-weight:normal;font-stretch:normal;text-indent:0;text-align:start;text-decoration:none;line-height:normal;letter-spacing:normal;word-spacing:normal;text-transform:none;direction:ltr;block-progression:tb;writing-mode:lr-tb;text-anchor:start;baseline-shift:baseline;color:#000000;fill:#000000;fill-opacity:1;stroke:none;stroke-width:1;marker:none;visibility:visible;display:inline;overflow:visible;enable-background:accumulate;font-family:Sans;-inkscape-font-specification:Sans" />
    <path
       inkscape:connector-curvature="0"
       id="path3440"
       d="m 179.0971,898.94606 a 1.9585962,1.9585962 0 1 0 0.3666,3.9 l 153.0749,0 a 1.950195,1.950195 0 1 0 0,-3.9 l -153.0749,0 a 1.950195,1.950195 0 0 0 -0.3666,0 z"
       style="font-size:medium;font-style:normal;font-variant:normal;font-weight:normal;font-stretch:normal;text-indent:0;text-align:start;text-decoration:none;line-height:normal;letter-spacing:normal;word-spacing:normal;text-transform:none;direction:ltr;block-progression:tb;writing-mode:lr-tb;text-anchor:start;baseline-shift:baseline;color:#000000;fill:#000000;fill-opacity:1;stroke:none;stroke-width:1;marker:none;visibility:visible;display:inline;overflow:visible;enable-background:accumulate;font-family:Sans;-inkscape-font-specification:Sans" />
    <path
       inkscape:connector-curvature="0"
       id="path3442"
       d="m 179.4625,920.58828 a 1.950195,1.950195 0 1 0 0,3.9 l 153.075,0 a 1.950195,1.950195 0 1 0 0,-3.9 l -153.075,0 z"
       style="font-size:medium;font-style:normal;font-variant:normal;font-weight:normal;font-stretch:normal;text-indent:0;text-align:start;text-decoration:none;line-height:normal;letter-spacing:normal;word-spacing:normal;text-transform:none;direction:ltr;block-progression:tb;writing-mode:lr-tb;text-anchor:start;baseline-shift:baseline;color:#000000;fill:#000000;fill-opacity:1;stroke:none;stroke-width:1;marker:none;visibility:visible;display:inline;overflow:visible;enable-background:accumulate;font-family:Sans;-inkscape-font-specification:Sans" />
    <path
       inkscape:connector-curvature="0"
       id="path3490"
       d="m 139.24513,629.16725 c -3.66749,0.0384 -6.9724,3.40114 -6.9471,7.06875 l 0,320.25232 c -0.0253,3.66763 3.27959,7.03044 6.9471,7.0688 l 234.01521,0 c 3.66738,-0.0386 6.97203,-3.4013 6.9467,-7.0688 l 0,-320.25232 c 0.0253,-3.66748 -3.27934,-7.03018 -6.9467,-7.06875 z m 7.0687,14.1375 219.87771,0 0,306.23677 -219.87771,0 z"
       style="font-size:medium;font-style:normal;font-variant:normal;font-weight:normal;font-stretch:normal;text-indent:0;text-align:start;text-decoration:none;line-height:normal;letter-spacing:normal;word-spacing:normal;text-transform:none;direction:ltr;block-progression:tb;writing-mode:lr-tb;text-anchor:start;baseline-shift:baseline;opacity:0.98000004;color:#000000;fill:#000000;fill-opacity:1;stroke:none;stroke-width:3.5999999;marker:none;visibility:visible;display:inline;overflow:visible;enable-background:accumulate;font-family:Sans;-inkscape-font-specification:Sans"
       sodipodi:nodetypes="cccccccccccccc" />
  </g>
</svg>
