<?xml version="1.0" encoding="UTF-8" standalone="no"?>
<!-- Created with Inkscape (http://www.inkscape.org/) -->

<svg
   xmlns:dc="http://purl.org/dc/elements/1.1/"
   xmlns:cc="http://creativecommons.org/ns#"
   xmlns:rdf="http://www.w3.org/1999/02/22-rdf-syntax-ns#"
   xmlns:svg="http://www.w3.org/2000/svg"
   xmlns="http://www.w3.org/2000/svg"
   xmlns:sodipodi="http://sodipodi.sourceforge.net/DTD/sodipodi-0.dtd"
   xmlns:inkscape="http://www.inkscape.org/namespaces/inkscape"
   width="512"
   height="512"
   id="svg3345"
   version="1.1"
   inkscape:version="0.48.3.1 r9886"
   sodipodi:docname="con_fotos.svg">
  <defs
     id="defs3347" />
  <sodipodi:namedview
     id="base"
     pagecolor="#ffffff"
     bordercolor="#666666"
     borderopacity="1.0"
     inkscape:pageopacity="0.0"
     inkscape:pageshadow="2"
     inkscape:zoom="1.4"
     inkscape:cx="235.24206"
     inkscape:cy="274.34245"
     inkscape:document-units="px"
     inkscape:current-layer="layer1"
     showgrid="true"
     showguides="true"
     inkscape:guide-bbox="true"
     inkscape:snap-nodes="false"
     inkscape:window-width="1280"
     inkscape:window-height="938"
     inkscape:window-x="0"
     inkscape:window-y="27"
     inkscape:window-maximized="1">
    <sodipodi:guide
       orientation="0,1"
       position="728.57143,64"
       id="guide3353" />
    <inkscape:grid
       type="xygrid"
       id="grid3726"
       empspacing="24"
       visible="true"
       enabled="true"
       snapvisiblegridlinesonly="true"
       spacingx="0.8888px"
       spacingy="0.8888px" />
  </sodipodi:namedview>
  <metadata
     id="metadata3350">
    <rdf:RDF>
      <cc:Work
         rdf:about="">
        <dc:format>image/svg+xml</dc:format>
        <dc:type
           rdf:resource="http://purl.org/dc/dcmitype/StillImage" />
        <dc:title />
      </cc:Work>
    </rdf:RDF>
  </metadata>
  <g
     inkscape:label="Capa 1"
     inkscape:groupmode="layer"
     id="layer1"
     transform="translate(0,-540.36218)">
    <path
       sodipodi:nodetypes="ccccccccccccccc"
       inkscape:connector-curvature="0"
       id="path3414"
       d="m 181.48348,673.02463 c -3.45875,0.3379 -6.37778,3.5938 -6.3375,7.0688 l 0,168.854 c -0.0255,3.7081 3.36068,7.0943 7.0688,7.0688 l 148.57652,0 c 3.66738,-0.039 6.97203,-3.4013 6.9467,-7.0688 l 0,-168.854 c 0.0253,-3.6675 -3.27932,-7.0302 -6.9467,-7.0688 l -148.57652,0 c -0.24355,-0.013 -0.48776,-0.013 -0.7313,0 z m 7.6784,14.0157 134.56072,0 0,154.9602 -134.56072,0 z"
       style="font-size:medium;font-style:normal;font-variant:normal;font-weight:normal;font-stretch:normal;text-indent:0;text-align:start;text-decoration:none;line-height:normal;letter-spacing:normal;word-spacing:normal;text-transform:none;direction:ltr;block-progression:tb;writing-mode:lr-tb;text-anchor:start;baseline-shift:baseline;color:#000000;fill:#000000;fill-opacity:1;fill-rule:nonzero;stroke:none;stroke-width:3.5999999;marker:none;visibility:visible;display:inline;overflow:visible;enable-background:accumulate;font-family:Sans;-inkscape-font-specification:Sans" />
    <path
       id="path3420"
       d="m 223.73572,697.39526 c -13.47938,0 -24.5573,11.05269 -24.5573,24.50099 0,13.44822 11.07792,24.50091 24.5573,24.50091 13.47939,0 24.55775,-11.05269 24.55775,-24.50091 0,-13.4483 -11.07836,-24.50099 -24.55775,-24.50099 z"
       style="font-size:medium;font-style:normal;font-variant:normal;font-weight:normal;font-stretch:normal;text-indent:0;text-align:start;text-decoration:none;line-height:normal;letter-spacing:normal;word-spacing:normal;text-transform:none;direction:ltr;block-progression:tb;writing-mode:lr-tb;text-anchor:start;baseline-shift:baseline;opacity:0.98000004;color:#000000;fill:#000000;fill-opacity:1;fill-rule:nonzero;stroke:none;stroke-width:4.65702009;marker:none;visibility:visible;display:inline;overflow:visible;enable-background:accumulate;font-family:Sans;-inkscape-font-specification:Sans"
       inkscape:connector-curvature="0" />
    <path
       id="path3422"
       d="m 288.86047,745.2168 a 6.4144038,6.4859861 0 0 0 -4.50075,2.44183 l -36.00438,47.39469 -8.2325,-16.09422 a 6.4144038,6.4859861 0 0 0 -10.75746,-0.99897 l -31.50399,40.40206 a 6.4144038,6.4859861 0 0 0 4.93983,10.43343 l 103.95146,0 a 6.4144038,6.4859861 0 0 0 6.36659,-6.43763 l 0,-43.62092 a 6.4144038,6.4859861 0 0 0 -0.98768,-3.55182 l -17.234,-27.08264 a 6.4144038,6.4859861 0 0 0 -6.03712,-2.88581 z"
       style="font-size:medium;font-style:normal;font-variant:normal;font-weight:normal;font-stretch:normal;text-indent:0;text-align:start;text-decoration:none;line-height:normal;letter-spacing:normal;word-spacing:normal;text-transform:none;direction:ltr;block-progression:tb;writing-mode:lr-tb;text-anchor:start;baseline-shift:baseline;color:#000000;fill:#000000;fill-opacity:1;fill-rule:nonzero;stroke:none;stroke-width:3.65183735;marker:none;visibility:visible;display:inline;overflow:visible;enable-background:accumulate;font-family:Sans;-inkscape-font-specification:Sans"
       inkscape:connector-curvature="0" />
    <path
       sodipodi:nodetypes="csccsccc"
       inkscape:connector-curvature="0"
       id="path3432"
       d="m 178.93799,876.60993 c -1.02102,0.1596 -1.80479,1.2338 -1.6452,2.2548 0.15959,1.0211 1.23378,1.8048 2.2548,1.6452 l 153.07501,0 c 1.03021,0.015 1.97777,-0.9196 1.97777,-1.95 0,-1.0303 -0.94756,-1.9645 -1.97777,-1.95 l -153.07501,0 c -0.20153,-0.032 -0.40807,-0.032 -0.6096,0 z"
       style="font-size:medium;font-style:normal;font-variant:normal;font-weight:normal;font-stretch:normal;text-indent:0;text-align:start;text-decoration:none;line-height:normal;letter-spacing:normal;word-spacing:normal;text-transform:none;direction:ltr;block-progression:tb;writing-mode:lr-tb;text-anchor:start;baseline-shift:baseline;color:#000000;fill:#000000;fill-opacity:1;stroke:none;stroke-width:1;marker:none;visibility:visible;display:inline;overflow:visible;enable-background:accumulate;font-family:Sans;-inkscape-font-specification:Sans" />
    <path
       sodipodi:nodetypes="csccsccc"
       inkscape:connector-curvature="0"
       id="path3434"
       d="m 179.18169,898.37473 c -1.02085,0.096 -1.86223,1.1124 -1.76627,2.1333 0.096,1.0208 1.11197,1.8624 2.13287,1.7667 l 153.07501,0 c 1.03021,0.015 1.97777,-0.9197 1.97777,-1.95 0,-1.0303 -0.94756,-1.9646 -1.97777,-1.95 l -153.07501,0 c -0.12184,-0.012 -0.24476,-0.012 -0.3666,0 z"
       style="font-size:medium;font-style:normal;font-variant:normal;font-weight:normal;font-stretch:normal;text-indent:0;text-align:start;text-decoration:none;line-height:normal;letter-spacing:normal;word-spacing:normal;text-transform:none;direction:ltr;block-progression:tb;writing-mode:lr-tb;text-anchor:start;baseline-shift:baseline;color:#000000;fill:#000000;fill-opacity:1;stroke:none;stroke-width:1;marker:none;visibility:visible;display:inline;overflow:visible;enable-background:accumulate;font-family:Sans;-inkscape-font-specification:Sans" />
    <path
       sodipodi:nodetypes="csccscc"
       inkscape:connector-curvature="0"
       id="path3436"
       d="m 179.54759,919.42523 c -1.03021,-0.015 -1.97777,0.9196 -1.97777,1.95 0,1.0303 0.94756,1.9645 1.97777,1.95 l 153.07501,0 c 1.03021,0.014 1.97777,-0.9197 1.97777,-1.95 0,-1.0304 -0.94756,-1.9646 -1.97777,-1.95 z"
       style="font-size:medium;font-style:normal;font-variant:normal;font-weight:normal;font-stretch:normal;text-indent:0;text-align:start;text-decoration:none;line-height:normal;letter-spacing:normal;word-spacing:normal;text-transform:none;direction:ltr;block-progression:tb;writing-mode:lr-tb;text-anchor:start;baseline-shift:baseline;color:#000000;fill:#000000;fill-opacity:1;stroke:none;stroke-width:1;marker:none;visibility:visible;display:inline;overflow:visible;enable-background:accumulate;font-family:Sans;-inkscape-font-specification:Sans" />
    <path
       sodipodi:nodetypes="cccccccccccccc"
       style="font-size:medium;font-style:normal;font-variant:normal;font-weight:normal;font-stretch:normal;text-indent:0;text-align:start;text-decoration:none;line-height:normal;letter-spacing:normal;word-spacing:normal;text-transform:none;direction:ltr;block-progression:tb;writing-mode:lr-tb;text-anchor:start;baseline-shift:baseline;opacity:0.98000004;color:#000000;fill:#000000;fill-opacity:1;stroke:none;stroke-width:3.5999999;marker:none;visibility:visible;display:inline;overflow:visible;enable-background:accumulate;font-family:Sans;-inkscape-font-specification:Sans"
       d="m 138.5386,628.66213 c -3.66751,0.038 -6.97242,3.4012 -6.9471,7.0688 l 0,321.2625 c -0.0253,3.6676 3.27959,7.0304 6.9471,7.0688 l 235.60934,0 c 3.66738,-0.039 6.97203,-3.4013 6.9467,-7.0688 l 0,-321.2625 c 0.0253,-3.6675 -3.27932,-7.0302 -6.9467,-7.0688 z m 7.0687,14.1375 221.47194,0 0,307.247 -221.47194,0 z"
       id="path3514"
       inkscape:connector-curvature="0" />
  </g>
</svg>
